<?xml version="1.0" encoding="UTF-8" standalone="no"?>
<!-- Generator: Adobe Illustrator 17.0.0, SVG Export Plug-In . SVG Version: 6.00 Build 0)  -->

<svg
   xmlns:dc="http://purl.org/dc/elements/1.1/"
   xmlns:cc="http://creativecommons.org/ns#"
   xmlns:rdf="http://www.w3.org/1999/02/22-rdf-syntax-ns#"
   xmlns:svg="http://www.w3.org/2000/svg"
   xmlns="http://www.w3.org/2000/svg"
   xmlns:xlink="http://www.w3.org/1999/xlink"
   xmlns:sodipodi="http://sodipodi.sourceforge.net/DTD/sodipodi-0.dtd"
   xmlns:inkscape="http://www.inkscape.org/namespaces/inkscape"
   id="Layer_1"
   enable-background="new 0 0 720 720"
   xml:space="preserve"
   viewBox="0 0 720 720"
   version="1.1"
   y="0px"
   x="0px"
   inkscape:version="0.91 r13725"
   sodipodi:docname="moon-and-stars.svg"><defs
     id="defs15"><linearGradient
       inkscape:collect="always"
       id="linearGradient4143"><stop
         style="stop-color:#ff9500;stop-opacity:1;"
         offset="0"
         id="stop4145" /><stop
         style="stop-color:#fcee21;stop-opacity:1"
         offset="1"
         id="stop4147" /></linearGradient><linearGradient
       inkscape:collect="always"
       xlink:href="#linearGradient4143"
       id="linearGradient4149"
       x1="199.01427"
       y1="233.81029"
       x2="526.80469"
       y2="448.45914"
       gradientUnits="userSpaceOnUse" /></defs><sodipodi:namedview
     pagecolor="#ffffff"
     bordercolor="#666666"
     borderopacity="1"
     objecttolerance="10"
     gridtolerance="10"
     guidetolerance="10"
     inkscape:pageopacity="0"
     inkscape:pageshadow="2"
     inkscape:window-width="892"
     inkscape:window-height="601"
     id="namedview13"
     showgrid="false"
     inkscape:zoom="0.46354778"
     inkscape:cx="296.59128"
     inkscape:cy="381.57275"
     inkscape:window-x="0"
     inkscape:window-y="0"
     inkscape:window-maximized="0"
     inkscape:current-layer="Layer_1" /><path
     d="m427.81 486.7c26.377-14.827 47.384-35.512 62.321-59.506-4.291 3.03-8.777 5.871-13.456 8.501-73.796 41.482-167.25 15.285-208.73-58.511s-15.285-167.25 58.511-208.73c4.679-2.63 9.438-4.986 14.257-7.077-28.262 0.289-56.853 7.483-83.23 22.309-83.675 47.034-113.38 153-66.344 236.67s153 113.38 236.67 66.35z"
     fill="#B3B3B3"
     id="path3"
     style="fill:url(#linearGradient4149);fill-opacity:1;stroke:#f48a00;stroke-opacity:1;stroke-width:3;stroke-miterlimit:4;stroke-dasharray:none" /><polygon
     points="367.46,307.94 394.62,304 406.78,279.38 418.92,304 446.09,307.94 426.43,327.11 431.07,354.16 406.78,341.39 382.48,354.16 387.12,327.11 "
     id="polygon5"
     style="fill:#fcee26;stroke:#bdb003;stroke-opacity:1;fill-opacity:1"
     transform="translate(-26,20)" /><polygon
     points="470.48,339.22 476.64,326.73 482.8,339.22 496.58,341.22 486.61,350.94 488.96,364.66 476.64,358.18 464.32,364.66 466.67,350.94 456.7,341.22 "
     id="polygon7"
     style="fill:#fcee21;stroke:#bdb003;stroke-opacity:1"
     transform="matrix(0.71769499,0,0,0.71769499,70.37893,22.615945)" /><polygon
     points="317.15,279.38 319.5,265.66 309.54,255.94 323.31,253.94 329.48,241.45 335.64,253.94 349.42,255.94 339.44,265.66 341.8,279.38 329.48,272.9 "
     id="polygon9"
     style="fill:#fcee21;stroke:#bdb003;stroke-opacity:1"
     transform="translate(9.7077372,-20.494112)" /><metadata
     id="metadata11"><rdf:RDF><cc:Work><dc:format>image/svg+xml</dc:format><dc:type
           rdf:resource="http://purl.org/dc/dcmitype/StillImage" /><cc:license
           rdf:resource="http://creativecommons.org/licenses/publicdomain/" /><dc:publisher><cc:Agent
             rdf:about="http://openclipart.org/"><dc:title>Openclipart</dc:title></cc:Agent></dc:publisher></cc:Work><cc:License
         rdf:about="http://creativecommons.org/licenses/publicdomain/"><cc:permits
           rdf:resource="http://creativecommons.org/ns#Reproduction" /><cc:permits
           rdf:resource="http://creativecommons.org/ns#Distribution" /><cc:permits
           rdf:resource="http://creativecommons.org/ns#DerivativeWorks" /></cc:License></rdf:RDF></metadata></svg>