<?xml version="1.0" encoding="UTF-8" standalone="no"?>
<!-- Creator: CorelDRAW -->

<svg
   xmlns:dc="http://purl.org/dc/elements/1.1/"
   xmlns:cc="http://creativecommons.org/ns#"
   xmlns:rdf="http://www.w3.org/1999/02/22-rdf-syntax-ns#"
   xmlns:svg="http://www.w3.org/2000/svg"
   xmlns="http://www.w3.org/2000/svg"
   xmlns:xlink="http://www.w3.org/1999/xlink"
   xmlns:sodipodi="http://sodipodi.sourceforge.net/DTD/sodipodi-0.dtd"
   xmlns:inkscape="http://www.inkscape.org/namespaces/inkscape"
   xml:space="preserve"
   width="279.4mm"
   height="215.9mm"
   style="shape-rendering:geometricPrecision; text-rendering:geometricPrecision; image-rendering:optimizeQuality; fill-rule:evenodd; clip-rule:evenodd"
   viewBox="0 0 279.4 215.9"
   id="svg2"
   version="1.1"
   inkscape:version="0.91 r13725"
   sodipodi:docname="X-1.svg"><metadata
   id="metadata366"><rdf:RDF><cc:Work
       rdf:about=""><dc:format>image/svg+xml</dc:format><dc:type
         rdf:resource="http://purl.org/dc/dcmitype/StillImage" /><dc:title></dc:title></cc:Work></rdf:RDF></metadata><sodipodi:namedview
   pagecolor="#ffffff"
   bordercolor="#666666"
   borderopacity="1"
   objecttolerance="10"
   gridtolerance="10"
   guidetolerance="10"
   inkscape:pageopacity="0"
   inkscape:pageshadow="2"
   inkscape:window-width="1280"
   inkscape:window-height="744"
   id="namedview364"
   showgrid="false"
   inkscape:zoom="1.1617549"
   inkscape:cx="496.53259"
   inkscape:cy="376.05628"
   inkscape:window-x="-4"
   inkscape:window-y="-4"
   inkscape:window-maximized="1"
   inkscape:current-layer="svg2"
   inkscape:snap-bbox="true"
   inkscape:bbox-paths="true"
   inkscape:object-paths="true"
   inkscape:snap-others="false"
   inkscape:snap-smooth-nodes="true"
   inkscape:object-nodes="true"
   inkscape:snap-intersection-paths="true"
   inkscape:snap-global="false" />
 <defs
   id="defs4"><linearGradient
   y2="157.749"
   x2="129.837"
   y1="140.912"
   x1="129.837"
   gradientUnits="userSpaceOnUse"
   id="linearGradient15186">
   <stop
   id="stop15188"
   style="stop-color:#C4632F"
   offset="0" /><stop
   offset="0.08445257"
   style="stop-color:#c4632f;stop-opacity:1"
   id="stop15198" /><stop
   offset="0.21156915"
   style="stop-color:#b3b3b3;stop-opacity:1"
   id="stop15192" /><stop
   id="stop15196"
   style="stop-color:#c4632f;stop-opacity:1"
   offset="0.40804261" /><stop
   id="stop15194"
   style="stop-color:#c4632f;stop-opacity:1"
   offset="0.66564649" />
   <stop
   id="stop15190"
   style="stop-color:#4D4D4D"
   offset="1" />
  </linearGradient><linearGradient
   y2="110.487"
   x2="136.987"
   y1="115.061"
   x1="136.987"
   gradientUnits="userSpaceOnUse"
   id="linearGradient15174">
   <stop
   id="stop15176"
   style="stop-color:#C4632F"
   offset="0" />
   <stop
   id="stop15178"
   style="stop-color:#C4632F"
   offset="0.36809438" />
   <stop
   id="stop15180"
   style="stop-color:#CCCCCC"
   offset="0.52252579" />
   <stop
   id="stop15182"
   style="stop-color:#C4632F"
   offset="0.78607064" />
   <stop
   id="stop15184"
   style="stop-color:#C4632F"
   offset="1" />
  </linearGradient>
  <style
   type="text/css"
   id="style6">
   <![CDATA[
    .str1 {stroke:black;stroke-width:0.0762}
    .str4 {stroke:black;stroke-width:0.0083}
    .str0 {stroke:black;stroke-width:0.0633}
    .str3 {stroke:black;stroke-width:0.2078}
    .str2 {stroke:black;stroke-width:0.4156}
    .fil12 {fill:none}
    .fil4 {fill:none;fill-rule:nonzero}
    .fil31 {fill:black}
    .fil25 {fill:#000066}
    .fil20 {fill:#00CCFF}
    .fil15 {fill:#1A1A1A}
    .fil27 {fill:#330066}
    .fil13 {fill:#333333}
    .fil1 {fill:#4D4D4D}
    .fil17 {fill:#666666}
    .fil26 {fill:#990000}
    .fil0 {fill:#C4632F}
    .fil22 {fill:#CC3300}
    .fil18 {fill:#CD6C39}
    .fil32 {fill:#E6E6E6}
    .fil28 {fill:#FFCC00}
    .fil21 {fill:white}
    .fil11 {fill:black;fill-rule:nonzero}
    .fil19 {fill:#1A1A1A;fill-rule:nonzero}
    .fil16 {fill:#990000;fill-rule:nonzero}
    .fil30 {fill:url(#id0)}
    .fil23 {fill:url(#id1)}
    .fil29 {fill:url(#id2)}
    .fil34 {fill:url(#id3)}
    .fil3 {fill:url(#id4)}
    .fil5 {fill:url(#id5)}
    .fil9 {fill:url(#id6)}
    .fil2 {fill:url(#id7)}
    .fil14 {fill:url(#id8)}
    .fil10 {fill:url(#id9)}
    .fil6 {fill:url(#id10)}
    .fil24 {fill:url(#id11)}
    .fil7 {fill:url(#id12)}
    .fil33 {fill:url(#id13)}
    .fil8 {fill:url(#id14)}
   ]]>
  </style>
  <linearGradient
   id="id0"
   gradientUnits="userSpaceOnUse"
   x1="170.715"
   y1="131.952"
   x2="170.715"
   y2="131.719">
   <stop
   offset="0"
   style="stop-color:#848688"
   id="stop9" />
   <stop
   offset="0.25098"
   style="stop-color:#FEFEFE"
   id="stop11" />
   <stop
   offset="0.501961"
   style="stop-color:#848688"
   id="stop13" />
   <stop
   offset="0.74902"
   style="stop-color:#FEFEFE"
   id="stop15" />
   <stop
   offset="1"
   style="stop-color:#848688"
   id="stop17" />
  </linearGradient>
  <linearGradient
   id="id1"
   gradientUnits="userSpaceOnUse"
   xlink:href="#id0"
   x1="272.825"
   y1="131.006"
   x2="272.825"
   y2="130.351">
  </linearGradient>
  <linearGradient
   id="id2"
   gradientUnits="userSpaceOnUse"
   x1="129.904"
   y1="131.943"
   x2="129.904"
   y2="134.747">
   <stop
   offset="0"
   style="stop-color:#C4632F"
   id="stop21" />
   <stop
   offset="1"
   style="stop-color:#666666"
   id="stop23" />
  </linearGradient>
  <linearGradient
   id="id3"
   gradientUnits="userSpaceOnUse"
   x1="27.0333"
   y1="108.499"
   x2="27.0333"
   y2="109.929">
   <stop
   offset="0"
   style="stop-color:#C4632F"
   id="stop26" />
   <stop
   offset="1"
   style="stop-color:gray"
   id="stop28" />
  </linearGradient>
  <linearGradient
   id="id4"
   gradientUnits="userSpaceOnUse"
   x1="6.6269"
   y1="130.7"
   x2="6.6269"
   y2="134.232">
   <stop
   offset="0"
   style="stop-color:#373435"
   id="stop31" />
   <stop
   offset="0.0588235"
   style="stop-color:#626767"
   id="stop33" />
   <stop
   offset="0.121569"
   style="stop-color:#B5B1B4"
   id="stop35" />
   <stop
   offset="0.188235"
   style="stop-color:#B3B3B3"
   id="stop37" />
   <stop
   offset="0.239216"
   style="stop-color:#999999"
   id="stop39" />
   <stop
   offset="0.4"
   style="stop-color:#C8CECB"
   id="stop41" />
   <stop
   offset="0.619608"
   style="stop-color:#9F9A9E"
   id="stop43" />
   <stop
   offset="0.780392"
   style="stop-color:#666467"
   id="stop45" />
   <stop
   offset="1"
   style="stop-color:#373435"
   id="stop47" />
  </linearGradient>
  <linearGradient
   id="id5"
   gradientUnits="userSpaceOnUse"
   xlink:href="#id4"
   x1="6.6269"
   y1="126.659"
   x2="6.6269"
   y2="130.7">
  </linearGradient>
  <linearGradient
   id="id6"
   gradientUnits="userSpaceOnUse"
   xlink:href="#id4"
   x1="14.1803"
   y1="119.441"
   x2="14.1803"
   y2="124.5">
  </linearGradient>
  <linearGradient
   id="id7"
   gradientUnits="userSpaceOnUse"
   xlink:href="#id4"
   x1="6.6268"
   y1="123.785"
   x2="6.6268"
   y2="126.659">
  </linearGradient>
  <linearGradient
   id="id8"
   gradientUnits="userSpaceOnUse"
   xlink:href="#id4"
   x1="12.9136"
   y1="131.84904"
   x2="12.9136"
   y2="134.17625">
  </linearGradient>
  <linearGradient
   id="id9"
   gradientUnits="userSpaceOnUse"
   xlink:href="#id4"
   x1="19.8505"
   y1="122.896"
   x2="19.8505"
   y2="138.69843">
  </linearGradient>
  <linearGradient
   id="id10"
   gradientUnits="userSpaceOnUse"
   x1="129.837"
   y1="140.912"
   x2="129.837"
   y2="157.749">
   <stop
   offset="0"
   style="stop-color:#C4632F"
   id="stop55" />
   <stop
   offset="1"
   style="stop-color:#4D4D4D"
   id="stop57" />
  </linearGradient>
  <linearGradient
   id="id11"
   gradientUnits="userSpaceOnUse"
   x1="46.7694"
   y1="135.295"
   x2="46.7694"
   y2="133.261">
   <stop
   offset="0"
   style="stop-color:#C4632F"
   id="stop60" />
   <stop
   offset="0.741176"
   style="stop-color:#C8977D"
   id="stop62" />
   <stop
   offset="1"
   style="stop-color:#CCCCCC"
   id="stop64" />
  </linearGradient>
  <linearGradient
   id="id12"
   gradientUnits="userSpaceOnUse"
   x1="136.987"
   y1="115.061"
   x2="136.987"
   y2="110.487">
   <stop
   offset="0"
   style="stop-color:#C4632F"
   id="stop67" />
   <stop
   offset="0.23013993"
   style="stop-color:#C4632F"
   id="stop69" />
   <stop
   offset="0.3940843"
   style="stop-color:#CCCCCC"
   id="stop71" />
   <stop
   offset="0.64910221"
   style="stop-color:#C4632F"
   id="stop73" />
   <stop
   offset="1"
   style="stop-color:#C4632F"
   id="stop75" />
  </linearGradient>
  <linearGradient
   id="id13"
   gradientUnits="userSpaceOnUse"
   xlink:href="#id12"
   x1="38.308701"
   y1="112.67041"
   x2="38.308701"
   y2="106.5656">
  </linearGradient>
  <linearGradient
   id="id14"
   gradientUnits="userSpaceOnUse"
   xlink:href="#linearGradient15186"
   x1="129.254"
   y1="113.31113"
   x2="129.254"
   y2="149.33844">
  </linearGradient>
 <linearGradient
   inkscape:collect="always"
   xlink:href="#id4"
   id="linearGradient4494"
   gradientUnits="userSpaceOnUse"
   x1="6.6269"
   y1="130.7"
   x2="6.6269"
   y2="134.232" /><linearGradient
   inkscape:collect="always"
   xlink:href="#id10"
   id="linearGradient4496"
   gradientUnits="userSpaceOnUse"
   x1="129.83701"
   y1="144.67783"
   x2="129.83701"
   y2="151.79657" /><linearGradient
   inkscape:collect="always"
   xlink:href="#linearGradient15174"
   id="linearGradient4498"
   gradientUnits="userSpaceOnUse"
   x1="136.987"
   y1="115.061"
   x2="136.987"
   y2="109.06965" /><linearGradient
   inkscape:collect="always"
   xlink:href="#id4"
   id="linearGradient4500"
   gradientUnits="userSpaceOnUse"
   x1="12.9136"
   y1="129.298"
   x2="12.9136"
   y2="131.443" /><linearGradient
   inkscape:collect="always"
   xlink:href="#id4"
   id="linearGradient4502"
   gradientUnits="userSpaceOnUse"
   x1="12.9136"
   y1="126.4129"
   x2="12.9136"
   y2="128.98306" /><linearGradient
   inkscape:collect="always"
   xlink:href="#id4"
   id="linearGradient4504"
   gradientUnits="userSpaceOnUse"
   x1="12.9136"
   y1="123.10262"
   x2="12.9136"
   y2="125.76389" /><linearGradient
   inkscape:collect="always"
   xlink:href="#id2"
   id="linearGradient4506"
   gradientUnits="userSpaceOnUse"
   x1="129.904"
   y1="131.943"
   x2="129.904"
   y2="134.747" /><linearGradient
   inkscape:collect="always"
   xlink:href="#id0"
   id="linearGradient4508"
   gradientUnits="userSpaceOnUse"
   x1="170.715"
   y1="131.952"
   x2="170.715"
   y2="131.719" /><linearGradient
   inkscape:collect="always"
   xlink:href="#id2"
   id="linearGradient4510"
   gradientUnits="userSpaceOnUse"
   x1="129.904"
   y1="131.943"
   x2="129.90401"
   y2="133.24377" /><linearGradient
   inkscape:collect="always"
   xlink:href="#id3"
   id="linearGradient4512"
   gradientUnits="userSpaceOnUse"
   x1="27.0333"
   y1="108.499"
   x2="27.0333"
   y2="109.929" /><linearGradient
   inkscape:collect="always"
   xlink:href="#id3"
   id="linearGradient4514"
   gradientUnits="userSpaceOnUse"
   x1="27.0333"
   y1="108.499"
   x2="27.0333"
   y2="109.02707" />
  
  
  
  
  
  
  
  
  
  
  
  
  
  
  
  
  
  
  
  
  
  
  
  
  
  
  
  
  
  
  
  
  
  
  
  
  
  
  
  
  
  
  
  
  
  
  
  
  
  
  
  
  
  
  
  
  
  
  
  
  
  
  
  
  
  
  
  
  
  
  
  
  
  
  
  
  
  
  
  
  
  
  
  
 </defs>
 <polygon
   style="fill:#c4632f;stroke:#000000;stroke-width:0.0633"
   id="polygon81"
   points="8.2845,88.8927 7.123,102.693 10.454,102.693 11.6779,88.8927 "
   class="fil0 str0" /><rect
   style="fill:#4d4d4d;stroke:none;stroke-width:0.0633"
   id="rect83"
   height="10.447"
   width="5.55334"
   y="123.785"
   x="3.85021"
   class="fil1 str0" /><rect
   style="fill:url(#id7);stroke:none;stroke-width:0.0633"
   id="rect85"
   height="2.8738799"
   width="5.55334"
   y="123.785"
   x="3.85021"
   class="fil2 str0" /><g
   id="g87"
   style="stroke:none">
   <polygon
   style="fill:url(#linearGradient4494);stroke:none"
   id="polygon89"
   points="9.4036,134.232 3.8502,134.232 3.8502,130.7 9.4036,130.7 "
   class="fil3" />
   <polygon
   style="fill:none;fill-rule:nonzero;stroke:none;stroke-width:0.0762"
   points="9.4036,134.232 3.8502,134.232 3.8502,130.7 9.4036,130.7 "
   class="fil4 str1"
   id="1" />
  </g><g
   id="g92"
   style="stroke:none">
   <polygon
   style="fill:url(#id5);stroke:none"
   id="polygon94"
   points="9.4036,130.7 3.8502,130.7 3.8502,126.659 9.4036,126.659 "
   class="fil5" />
   <polygon
   style="fill:none;fill-rule:nonzero;stroke:none;stroke-width:0.0762"
   points="9.4036,130.7 3.8502,130.7 3.8502,126.659 9.4036,126.659 "
   class="fil4 str1"
   id="polygon96" />
  </g><path
   inkscape:connector-curvature="0"
   style="fill:url(#linearGradient4496);stroke:#000000;stroke-width:0.0633"
   id="path98"
   d="M 213.005,144.157 46.669,140.9124 c 19.1536,9.9524 148.996,16.8372 166.336,3.2446 z"
   class="fil6 str0" /><path
   inkscape:connector-curvature="0"
   style="fill:url(#linearGradient4498);stroke:#000000;stroke-width:0.0633"
   id="path100"
   d="m 60.9786,117.539 152.016,-0.8745 c -5.3213,-2.1539 -9.3868,-4.0802 -19.7731,-4.6825 -13.0797,-0.474 -25.969,-1.265 -39.0795,-1.1978 -22.0742,0.1132 -44.1547,-0.0798 -66.146,-0.0398 -9.093,0.0165 -18.2271,-1.1684 -27.0177,-2.7354 l 0,9.53 z"
   class="fil7 str0" /><path
   inkscape:connector-curvature="0"
   style="fill:url(#id14);stroke:#000000;stroke-width:0.0633"
   id="path102"
   d="m 10.4893,67.7839 c 4.4861,0 8.9722,0 13.4583,0 2.1498,0.0352 4.9457,0.2628 5.7484,1.5901 4.7552,9.8803 6.5138,14.2621 11.2691,24.1423 4.4077,9.1015 10.3822,12.8967 20.0135,14.4928 l 0,9.53 c 49.9848,-4.0579 114.32,-5.5865 152.016,-0.8745 15.6154,2.4699 28.8664,6.4241 39.4234,13.3477 l 0,1.3328 c -11.7632,7.7896 -25.8907,10.5205 -39.4134,12.8118 -43.1291,7.166 -111.441,4.765 -166.336,-3.2446 l -40.5779,-4.5526 0,-13.2071 4.3987,-55.3687 z"
   class="fil8 str0" /><polygon
   style="fill:url(#id6);stroke:none;stroke-width:0.0633"
   id="polygon104"
   points="6.0906,123.153 6.0906,124.442 22.27,124.5 22.27,119.441 6.3747,119.441 "
   class="fil9 str0" /><path
   inkscape:connector-curvature="0"
   style="fill:url(#id9);stroke:none;stroke-width:0.0633"
   id="path106"
   d="m 5.6647,123.152 c 8.0944,-0.1007 16.1614,-0.2564 24.2008,2.5846 2.2975,1.1087 3.193,3.0972 4.1708,4.8932 -3.7664,3.6865 -5.8568,4.3823 -12.9534,5.7294 -5.2493,0.5773 -10.3063,0.3298 -15.4182,0 0,-4.4024 0,-8.8048 0,-13.2072 z"
   class="fil10 str0" /><path
   style="fill:#000000;fill-rule:nonzero"
   inkscape:connector-curvature="0"
   id="path108"
   d="m 18.1626,93.9507 0.739,0.8336 2.2298,0 0.7391,-0.8336 0,-1.7399 -0.7391,-0.8335 -2.082,0 0,-1.0743 0.3026,-0.3375 1.3337,0 0.2979,0.3375 0,0.4697 0.8869,0 0,-0.9699 -0.7391,-0.8335 -2.2298,0 -0.739,0.8335 0,4.1479 z m 0.8868,-1.5731 1.6363,0 0.2979,0.3374 0,0.7317 -0.2979,0.3374 -1.3372,0 -0.2991,-0.3374 0,-1.0691 z m 3.5811,1.5731 0.7391,0.8336 2.2298,0 0.739,-0.8336 0,-4.1479 -0.739,-0.8335 -2.2298,0 -0.7391,0.8335 0,4.1479 z m 0.8868,-3.6438 0.2991,-0.3374 1.3372,0 0.2979,0.3374 0,3.1398 -0.2979,0.3374 -1.3372,0 -0.2991,-0.3374 0,-3.1398 z m 3.5812,3.6438 0.739,0.8336 2.2298,0 0.739,-0.8336 0,-1.7399 -0.739,-0.8335 -2.082,0 0,-1.0743 0.3026,-0.3375 1.3336,0 0.298,0.3375 0,0.4697 0.8868,0 0,-0.9699 -0.739,-0.8335 -2.2298,0 -0.739,0.8335 0,4.1479 z m 0.8868,-1.5731 1.6362,0 0.298,0.3374 0,0.7317 -0.298,0.3374 -1.3372,0 -0.299,-0.3374 0,-1.0691 z m 7.2889,1.4065 0,1.0002 -3.7078,0 0,-2.457 0.7389,-0.8336 1.7842,0 0.2956,-0.3373 0,-0.8495 -0.2991,-0.3414 -1.3338,0 -0.2991,0.3414 0,0.4658 -0.8867,0 0,-0.9699 0.7389,-0.8335 2.2299,0 0.739,0.8335 0,1.8577 -0.739,0.8335 -1.7865,0 -0.2956,0.34 0,0.9501 2.8211,0 z"
   class="fil11" /><polyline
   style="fill:none;stroke:#1a1a1a;stroke-width:0.4156"
   id="polyline110"
   points="10.0792,72.9474 17.8917,72.9474 17.8917,76.0356 15.1425,76.0356 15.1425,84.5582 17.7817,84.5582 17.7817,87.6373 15.1975,87.6373 15.1975,100.613 18.7714,100.613 18.7714,102.758 15.3625,102.758 14.8126,117.823 6.5147,117.823 6.514,117.823 "
   class="fil12 str2" /><polyline
   style="fill:none;stroke:#000000;stroke-width:0.0633"
   id="polyline112"
   points="17.8917,72.9474 31.3553,72.9474 31.3917,72.9302 "
   class="fil12 str0" /><polygon
   style="fill:none;stroke:#000000;stroke-width:0.0633"
   id="polygon114"
   points="33.1772,124.669 39.1155,124.422 39.1155,127.721 33.1772,127.721 "
   class="fil12 str0" /><polygon
   style="fill:none;stroke:#000000;stroke-width:0.0633"
   id="polygon116"
   points="43.3767,124.202 50.4971,123.817 50.4971,127.776 43.3767,127.776 "
   class="fil12 str0" /><rect
   style="fill:#333333;stroke:#000000;stroke-width:0.0633"
   id="rect118"
   height="2.77671"
   width="4.2887602"
   y="122.36"
   x="62.428699"
   class="fil13 str0" /><g
   id="g120">
   <polygon
   style="fill:url(#linearGradient4500)"
   id="polygon122"
   points="20.1626,131.278 5.6647,131.443 5.6647,129.298 20.1626,130.37 "
   class="fil14" />
   <polygon
   style="fill:url(#linearGradient4502)"
   id="polygon124"
   points="20.1626,127.005 5.6647,126.84 5.6647,128.985 20.1626,127.913 "
   class="fil14" />
   <polygon
   style="fill:url(#linearGradient4504)"
   id="polygon126"
   points="20.1626,123.932 5.6647,123.767 5.6647,125.912 20.1626,124.235 "
   class="fil14" />
   <polygon
   style="fill:url(#id8)"
   id="polygon128"
   points="20.1626,133.876 5.6647,134.041 5.6647,131.896 20.1626,133.573 "
   class="fil14" />
  </g><rect
   style="fill:none;stroke:#000000;stroke-width:0.0633"
   id="rect130"
   height="3.1615801"
   width="2.6942501"
   y="115.016"
   x="119.959"
   class="fil12 str0" /><polyline
   style="fill:none;stroke:#000000;stroke-width:0.0633"
   id="polyline132"
   points="150.97,113.753 150.97,125.738 126.118,125.738 126.118,114.098 "
   class="fil12 str0" /><circle
   style="fill:#1a1a1a;stroke:#000000;stroke-width:0.0633"
   id="circle136"
   r="0.82476699"
   cy="120.363"
   cx="155.71201"
   class="fil15 str0" /><path
   style="fill:#990000;fill-rule:nonzero"
   inkscape:connector-curvature="0"
   id="path138"
   d="m 165.71,118.668 0.3353,-1.1259 0.2418,0 0.3346,1.1259 -0.2011,0 -0.075,-0.2484 -0.3602,0 -0.0736,0.2484 -0.2018,0 z m 0.331,-0.4421 0.249,0 -0.1246,-0.4179 -0.1244,0.4179 z m 0.6978,0.2341 0.208,0 0,0.208 -0.208,0 0,-0.208 z m 0.3746,-0.9179 0.2769,0 0.2628,0.7491 0.2626,-0.7491 0.2777,0 -8e-4,1.1259 -0.1937,0 0,-0.8023 -0.2617,0.8023 -0.1676,0 -0.2626,-0.8015 0,0.8015 -0.1936,0 0,-1.1259 z m 1.2458,0.9179 0.208,0 0,0.208 -0.208,0 0,-0.208 z m 0.3746,0.0466 0.1613,0.1614 0.487,0 0.1614,-0.1614 0,-0.2042 -0.1937,0 0,0.1059 -0.065,0.066 -0.2921,0 -0.0645,-0.0653 0,-0.6079 0.0653,-0.0661 0.2913,0 0.065,0.0661 0,0.1066 0.1937,0 0,-0.2042 -0.1614,-0.1614 -0.487,0 -0.1613,0.1614 0,0.8031 z m 0.9758,-0.0466 0.2079,0 0,0.208 -0.2079,0 0,-0.208 z m -9.6485,0.7993 0.7498,0 0,0.1937 -0.5562,0 0,0.2725 0.4337,0 0,0.1937 -0.4337,0 0,0.466 -0.1936,0 0,-1.1259 z m 0.9163,0 0.1936,0 0,0.9322 0.5562,0 0,0.1937 -0.7498,0 0,-1.1259 z m 0.9164,0 0.1936,0 0,1.1259 -0.1936,0 0,-1.1259 z m 0.3586,0.9645 0.1614,0.1614 0.4872,0 0.1612,-0.1614 0,-0.4457 -0.345,0 0,0.1937 0.1516,0 0,0.1544 -0.0654,0.0653 -0.292,0 -0.0646,-0.0653 0,-0.6079 0.0654,-0.0661 0.2912,0 0.0654,0.0661 0,0.1066 0.1934,0 0,-0.2042 -0.1612,-0.1614 -0.4872,0 -0.1614,0.1614 0,0.8031 z m 0.9758,-0.9645 0.1936,0 0,0.4662 0.4225,0 0,-0.4662 0.1936,0 0,1.1259 -0.1936,0 0,-0.466 -0.4225,0 0,0.466 -0.1936,0 0,-1.1259 z m 0.9758,0 0.7498,0 0,0.1937 -0.2785,0 0,0.9322 -0.1936,0 0,-0.9322 -0.2777,0 0,-0.1937 z m 1.4042,0 0.7498,0 0,0.1937 -0.2785,0 0,0.9322 -0.1937,0 0,-0.9322 -0.2776,0 0,-0.1937 z m 0.9163,0 0.7498,0 0,0.1937 -0.5562,0 0,0.2725 0.4338,0 0,0.1937 -0.4338,0 0,0.2723 0.5562,0 0,0.1937 -0.7498,0 0,-1.1259 z m 1.5355,1.1259 0.2193,0 -0.3235,-0.5628 0.3228,-0.5631 -0.2208,0 -0.2124,0.371 -0.214,-0.371 -0.2205,0 0.3244,0.5631 -0.3244,0.5628 0.2185,0 0.216,-0.3737 0.2146,0.3737 z m 0.3567,-1.1259 0.7498,0 0,0.1937 -0.2785,0 0,0.9322 -0.1936,0 0,-0.9322 -0.2777,0 0,-0.1937 z m 1.4042,1.1259 0.6483,0 0.1614,-0.1614 0,-0.8031 -0.1614,-0.1614 -0.6483,0 0,1.1259 z m 0.1936,-0.9322 0.3574,0 0.065,0.0653 0,0.6079 -0.065,0.0653 -0.3574,0 0,-0.7385 z m 0.7822,-0.1937 0.1936,0 0,1.1259 -0.1936,0 0,-1.1259 z m 1.2217,0 -0.3354,1.1259 -0.2415,0 -0.3349,-1.1259 0.2011,0 0.2551,0.8603 0.2537,-0.8603 0.2019,0 z m 0.1163,0 0.1936,0 0,1.1259 -0.1936,0 0,-1.1259 z m 0.3601,0.9645 0.1614,0.1614 0.487,0 0.1614,-0.1614 0,-0.3368 -0.1614,-0.1615 -0.3894,0 -0.0645,-0.0653 0,-0.1419 0.0653,-0.0661 0.2913,0 0.065,0.0661 0,0.0902 0.1937,0 0,-0.1878 -0.1614,-0.1614 -0.487,0 -0.1614,0.1614 0,0.3372 0.1614,0.1613 0.3904,0 0.0651,0.0659 0,0.1404 -0.0658,0.066 -0.2921,0 -0.0654,-0.0653 0,-0.0898 -0.1936,0 0,0.1874 z m 0.9758,-0.9645 0.1936,0 0,1.1259 -0.1936,0 0,-1.1259 z m 0.3602,0.9645 0.1614,0.1614 0.487,0 0.1613,-0.1614 0,-0.8031 -0.1613,-0.1614 -0.487,0 -0.1614,0.1614 0,0.8031 z m 0.1936,-0.7055 0.0654,-0.0653 0.2921,0 0.065,0.0653 0,0.6079 -0.065,0.0653 -0.2921,0 -0.0654,-0.0653 0,-0.6079 z m 0.7822,0.8669 0,-1.1259 0.2831,0 0.333,0.8214 0,-0.8214 0.1936,0 0,1.1259 -0.2812,0 -0.3349,-0.8195 0,0.8195 -0.1936,0 z m -11.2597,0.5913 0.1824,0.7896 0.198,-0.7896 0.184,0 -0.2731,1.1267 -0.2096,-8e-4 -0.1769,-0.7265 -0.175,0.7265 -0.2124,0 -0.2731,-1.1259 0.1867,0 0.1975,0.7896 0.1825,-0.7896 0.189,0 z m 0.68,1.1259 0.1936,0 0,-0.466 0.25,0 0.1614,0.466 0.2055,0 -0.1621,-0.466 0.1613,-0.1613 0,-0.3372 -0.1613,-0.1614 -0.6484,0 0,1.1259 z m 0.1936,-0.9322 0.3574,0 0.065,0.0653 0,0.1419 -0.065,0.0653 -0.3574,0 0,-0.2725 z m 0.7822,-0.1937 0.1936,0 0,1.1259 -0.1936,0 0,-1.1259 z m 0.3586,0.9645 0.1614,0.1614 0.4872,0 0.1612,-0.1614 0,-0.4457 -0.3451,0 0,0.1937 0.1517,0 0,0.1544 -0.0654,0.0653 -0.292,0 -0.0646,-0.0653 0,-0.6079 0.0654,-0.0661 0.2912,0 0.0654,0.0661 0,0.1066 0.1934,0 0,-0.2042 -0.1612,-0.1614 -0.4872,0 -0.1614,0.1614 0,0.8031 z m 0.9758,-0.9645 0.1936,0 0,0.4662 0.4224,0 0,-0.4662 0.1937,0 0,1.1259 -0.1937,0 0,-0.466 -0.4224,0 0,0.466 -0.1936,0 0,-1.1259 z m 0.9758,0 0.7498,0 0,0.1937 -0.2785,0 0,0.9322 -0.1937,0 0,-0.9322 -0.2776,0 0,-0.1937 z m 1.4041,0 0.7498,0 0,0.1937 -0.5562,0 0,0.2725 0.4338,0 0,0.1937 -0.4338,0 0,0.466 -0.1936,0 0,-1.1259 z m 0.9164,0 0.1936,0 0,1.1259 -0.1936,0 0,-1.1259 z m 0.3602,0 0.7498,0 0,0.1937 -0.5562,0 0,0.2725 0.4337,0 0,0.1937 -0.4337,0 0,0.2723 0.5562,0 0,0.1937 -0.7498,0 0,-1.1259 z m 0.9164,0 0.1936,0 0,0.9322 0.5562,0 0,0.1937 -0.7498,0 0,-1.1259 z m 0.9163,1.1259 0.6484,0 0.1614,-0.1614 0,-0.8031 -0.1614,-0.1614 -0.6484,0 0,1.1259 z m 0.1936,-0.9322 0.3575,0 0.065,0.0653 0,0.6079 -0.065,0.0653 -0.3575,0 0,-0.7385 z"
   class="fil16" /><rect
   style="fill:#333333;stroke:#000000;stroke-width:0.0633"
   id="rect140"
   height="3.46399"
   width="5.3333902"
   y="124.24"
   x="194.091"
   class="fil13 str0" /><path
   style="fill:none;stroke:#000000;stroke-width:0.0633"
   inkscape:connector-curvature="0"
   id="path142"
   d="m 203.891,123.361 15.2596,1.5946 c 0.9144,0 1.6625,0.7482 1.6625,1.6625 l 0,8.8815 c 0,0.9143 -0.7481,1.6625 -1.6625,1.6625 l -15.2596,0 c -0.9144,0 -1.6625,-0.7482 -1.6625,-1.6625 l 0,-10.4761 c 0,-0.9143 0.7481,-1.6625 1.6625,-1.6625 z"
   class="fil12 str0" /><rect
   style="fill:none;stroke:#000000;stroke-width:0.0633"
   id="rect144"
   height="4.7835999"
   width="0.54987299"
   y="130.811"
   x="221.83"
   class="fil12 str0" /><rect
   style="fill:#333333;stroke:#000000;stroke-width:0.0633"
   id="rect146"
   height="2.2818699"
   width="0.54987299"
   y="133.313"
   x="221.83"
   class="fil13 str0" /><g
   id="g148">
   <polygon
   style="fill:#333333"
   id="polygon150"
   points="222.38,131.361 221.83,131.361 221.83,130.811 222.38,130.811 "
   class="fil13" />
   <polygon
   style="fill:none;fill-rule:nonzero;stroke:#000000;stroke-width:0.0762"
   points="222.38,131.361 221.83,131.361 221.83,130.811 222.38,130.811 "
   class="fil4 str1"
   id="polygon152" />
  </g><circle
   style="fill:none;stroke:#000000;stroke-width:0.0633"
   id="circle154"
   r="1.20964"
   cy="133.87601"
   cx="225.202"
   class="fil12 str0" /><circle
   style="fill:#1a1a1a;stroke:#000000;stroke-width:0.0633"
   id="circle156"
   r="0.53607398"
   cy="133.87601"
   cx="225.202"
   class="fil15 str0" /><rect
   style="fill:none;stroke:#000000;stroke-width:0.0633"
   id="rect158"
   height="9.6771698"
   width="19.1343"
   y="136.007"
   x="125.777"
   class="fil12 str0" /><polygon
   style="fill:none;stroke:#000000;stroke-width:0.0633"
   id="polygon160"
   points="123.358,143.65 117.75,143.65 117.75,140.598 123.358,140.488 "
   class="fil12 str0" /><g
   id="g162">
   <polygon
   style="fill:#666666"
   id="polygon164"
   points="219.202,127.471 213.903,127.471 213.903,128.048 219.202,128.048 "
   class="fil17" />
   <polygon
   style="fill:none;fill-rule:nonzero;stroke:#000000;stroke-width:0.0762"
   points="219.202,127.471 213.903,127.471 213.903,128.048 219.202,128.048 "
   class="fil4 str1"
   id="polygon166" />
  </g><g
   id="g168">
   <polygon
   style="fill:#666666"
   id="polygon170"
   points="219.202,133.354 213.903,133.354 213.903,133.931 219.202,133.931 "
   class="fil17" />
   <polygon
   style="fill:none;fill-rule:nonzero;stroke:#000000;stroke-width:0.0762"
   points="219.202,133.354 213.903,133.354 213.903,133.931 219.202,133.931 "
   class="fil4 str1"
   id="polygon172" />
  </g><circle
   style="fill:none;stroke:#000000;stroke-width:0.0633"
   id="circle174"
   r="1.40215"
   cy="127.759"
   cx="216.61099"
   class="fil12 str0" /><circle
   style="fill:none;stroke:#000000;stroke-width:0.0633"
   id="circle176"
   r="1.40215"
   cy="133.64301"
   cx="216.61099"
   class="fil12 str0" /><g
   id="g178">
   <g
   id="g180">
    <polygon
   style="fill:#333333"
   id="polygon182"
   points="216.896,129.107 216.319,129.107 216.319,128.048 216.896,128.048 "
   class="fil13" />
    <polygon
   style="fill:none;fill-rule:nonzero;stroke:#000000;stroke-width:0.0762"
   points="216.896,129.107 216.319,129.107 216.319,128.048 216.896,128.048 "
   class="fil4 str1"
   id="polygon184" />
   </g>
   <g
   id="g186">
    <polygon
   style="fill:#333333"
   id="polygon188"
   points="216.896,127.471 216.319,127.471 216.319,126.412 216.896,126.412 "
   class="fil13" />
    <polygon
   style="fill:none;fill-rule:nonzero;stroke:#000000;stroke-width:0.0762"
   points="216.896,127.471 216.319,127.471 216.319,126.412 216.896,126.412 "
   class="fil4 str1"
   id="polygon190" />
   </g>
   <g
   id="g192">
    <polygon
   style="fill:#333333"
   id="polygon194"
   points="217.934,127.471 217.934,128.048 216.875,128.048 216.875,127.471 "
   class="fil13" />
    <polygon
   style="fill:none;fill-rule:nonzero;stroke:#000000;stroke-width:0.0762"
   points="217.934,127.471 217.934,128.048 216.875,128.048 216.875,127.471 "
   class="fil4 str1"
   id="polygon196" />
   </g>
   <g
   id="g198">
    <polygon
   style="fill:#333333"
   id="polygon200"
   points="216.346,127.471 216.346,128.048 215.288,128.048 215.288,127.471 "
   class="fil13" />
    <polygon
   style="fill:none;fill-rule:nonzero;stroke:#000000;stroke-width:0.0762"
   points="216.346,127.471 216.346,128.048 215.288,128.048 215.288,127.471 "
   class="fil4 str1"
   id="polygon202" />
   </g>
  </g><g
   id="g204">
   <g
   id="g206">
    <polygon
   style="fill:#333333"
   id="polygon208"
   points="216.896,134.99 216.319,134.99 216.319,133.931 216.896,133.931 "
   class="fil13" />
    <polygon
   style="fill:none;fill-rule:nonzero;stroke:#000000;stroke-width:0.0762"
   points="216.896,134.99 216.319,134.99 216.319,133.931 216.896,133.931 "
   class="fil4 str1"
   id="polygon210" />
   </g>
   <g
   id="g212">
    <polygon
   style="fill:#333333"
   id="polygon214"
   points="216.896,133.354 216.319,133.354 216.319,132.296 216.896,132.296 "
   class="fil13" />
    <polygon
   style="fill:none;fill-rule:nonzero;stroke:#000000;stroke-width:0.0762"
   points="216.896,133.354 216.319,133.354 216.319,132.296 216.896,132.296 "
   class="fil4 str1"
   id="polygon216" />
   </g>
   <g
   id="g218">
    <polygon
   style="fill:#333333"
   id="polygon220"
   points="217.934,133.354 217.934,133.931 216.875,133.931 216.875,133.354 "
   class="fil13" />
    <polygon
   style="fill:none;fill-rule:nonzero;stroke:#000000;stroke-width:0.0762"
   points="217.934,133.354 217.934,133.931 216.875,133.931 216.875,133.354 "
   class="fil4 str1"
   id="polygon222" />
   </g>
   <g
   id="g224">
    <polygon
   style="fill:#333333"
   id="polygon226"
   points="216.346,133.354 216.346,133.931 215.288,133.931 215.288,133.354 "
   class="fil13" />
    <polygon
   style="fill:none;fill-rule:nonzero;stroke:#000000;stroke-width:0.0762"
   points="216.346,133.354 216.346,133.931 215.288,133.931 215.288,133.354 "
   class="fil4 str1"
   id="polygon228" />
   </g>
  </g><g
   id="g230">
   <rect
   style="fill:#cd6c39"
   id="rect232"
   height="6.4331298"
   width="0.32992399"
   y="88.700996"
   x="19.706699"
   class="fil18" />
   <rect
   style="fill:#cd6c39"
   id="rect234"
   height="6.4331298"
   width="0.32992399"
   y="88.700996"
   x="24.2992"
   class="fil18" />
   <rect
   style="fill:#cd6c39"
   id="rect236"
   height="6.4331298"
   width="0.32992399"
   y="88.700996"
   x="28.7255"
   class="fil18" />
   <rect
   style="fill:#cd6c39"
   id="rect238"
   height="6.4331298"
   width="0.32992399"
   y="88.700996"
   x="33.318001"
   class="fil18" />
  </g><path
   style="fill:#1a1a1a;fill-rule:nonzero"
   inkscape:connector-curvature="0"
   id="path240"
   d="m 178.09213,128.70013 1.2198,0 c 0.2861,0 0.5023,0.0242 0.648,0.0737 0.1457,0.0495 0.2681,0.157 0.3664,0.3238 0.0992,0.1666 0.1484,0.3741 0.1484,0.6222 0,0.4333 -0.1698,0.7115 -0.5103,0.8346 0.4048,0.1551 0.6068,0.4721 0.6068,0.951 0,0.2519 -0.0545,0.4652 -0.1644,0.6378 -0.1099,0.1735 -0.2458,0.2888 -0.4076,0.347 -0.1608,0.0571 -0.3905,0.0862 -0.6873,0.0862 l -1.2198,0 0,-3.8763 z m 0.7542,1.5645 0.2538,0 c 0.253,0 0.4121,-0.0494 0.4782,-0.1473 0.0652,-0.0989 0.0974,-0.2113 0.0974,-0.3384 0,-0.1172 -0.0322,-0.2219 -0.0974,-0.313 -0.0661,-0.0921 -0.2055,-0.1387 -0.4209,-0.1387 l -0.3111,0 0,0.9374 z m 0,1.6449 0.3843,0 c 0.362,0 0.5425,-0.1686 0.5425,-0.506 0,-0.187 -0.0447,-0.3198 -0.135,-0.3964 -0.0902,-0.0765 -0.2261,-0.1144 -0.4075,-0.1144 l -0.3843,0 0,1.0168 z m 2.2594,-3.2094 2.1734,0 0,0.665 -1.3879,0 0,0.8995 1.0787,0 0,0.6679 -1.0787,0 0,0.9508 1.3879,0 0,0.6931 -2.1734,0 0,-3.8763 z m 2.5577,0 0.7856,0 0,3.1493 1.152,0 0,0.727 -1.9376,0 0,-3.8763 z m 2.2835,0 0.7855,0 0,3.1493 1.152,0 0,0.727 -1.9375,0 0,-3.8763 z"
   class="fil19" /><path
   style="fill:#990000;fill-rule:nonzero"
   inkscape:connector-curvature="0"
   id="path242"
   d="m 177.902,128.538 1.2198,0 c 0.2861,0 0.5024,0.0242 0.648,0.0736 0.1457,0.0495 0.2682,0.157 0.3664,0.3238 0.0993,0.1667 0.1484,0.3741 0.1484,0.6223 0,0.4332 -0.1698,0.7114 -0.5103,0.8345 0.4048,0.1552 0.6068,0.4721 0.6068,0.951 0,0.2519 -0.0545,0.4652 -0.1644,0.6378 -0.1099,0.1735 -0.2458,0.2889 -0.4076,0.347 -0.1608,0.0572 -0.3905,0.0863 -0.6873,0.0863 l -1.2198,0 0,-3.8763 z m 0.7542,1.5645 0.2538,0 c 0.253,0 0.4121,-0.0495 0.4782,-0.1474 0.0652,-0.0988 0.0974,-0.2113 0.0974,-0.3383 0,-0.1173 -0.0322,-0.222 -0.0974,-0.3131 -0.0661,-0.0921 -0.2055,-0.1386 -0.4209,-0.1386 l -0.3111,0 0,0.9374 z m 0,1.6448 0.3843,0 c 0.362,0 0.5425,-0.1686 0.5425,-0.5059 0,-0.1871 -0.0447,-0.3199 -0.135,-0.3965 -0.0902,-0.0765 -0.2261,-0.1143 -0.4075,-0.1143 l -0.3843,0 0,1.0167 z m 2.2594,-3.2093 2.1734,0 0,0.6649 -1.3879,0 0,0.8996 1.0787,0 0,0.6678 -1.0787,0 0,0.9509 1.3879,0 0,0.6931 -2.1734,0 0,-3.8763 z m 2.5577,0 0.7856,0 0,3.1492 1.152,0 0,0.7271 -1.9376,0 0,-3.8763 z m 2.2835,0 0.7855,0 0,3.1492 1.152,0 0,0.7271 -1.9375,0 0,-3.8763 z"
   class="fil16" /><path
   style="fill:#000000;fill-rule:nonzero"
   inkscape:connector-curvature="0"
   id="path244"
   d="m 190.85363,130.739 c -0.0376,-0.2437 -0.12611,-0.4646 -0.26527,-0.6639 -0.13832,-0.1993 -0.31006,-0.2989 -0.5153,-0.2989 -0.14647,0 -0.25921,0.0492 -0.33751,0.1464 -0.0783,0.0973 -0.13008,0.1993 -0.15451,0.3073 -0.0253,0.1081 -0.0376,0.1922 -0.0376,0.2534 0,0.2221 0.0325,0.4166 0.0986,0.5835 0.065,0.1656 0.17581,0.3458 0.33334,0.5378 0.21036,-0.192 0.50309,-0.4802 0.87818,-0.8656 z m 0.0418,-0.042 c 0.39827,-0.4154 0.7195,-0.7432 0.96441,-0.9869 0.24398,-0.2425 0.4747,-0.4586 0.69226,-0.6483 0.21745,-0.1897 0.41069,-0.3373 0.58034,-0.443 0.16974,-0.1056 0.33333,-0.1789 0.48982,-0.2185 l 0.0296,0.0276 -0.0864,0.0948 c -0.2612,0.2918 -0.49495,0.562 -0.70134,0.8128 -0.20524,0.251 -0.42479,0.5319 -0.65759,0.8428 -0.23374,0.311 -0.45016,0.6136 -0.65248,0.9088 -0.20127,0.2954 -0.41268,0.6196 -0.63525,0.9714 0.0934,0 0.20222,-0.0349 0.32728,-0.1045 0.12507,-0.0684 0.25202,-0.1609 0.38011,-0.2738 0.1281,-0.114 0.24387,-0.2329 0.34962,-0.3577 l 0,0.06 c -0.1189,0.1501 -0.28354,0.3098 -0.49295,0.4766 -0.20932,0.1681 -0.40548,0.2521 -0.58734,0.2521 l -0.12214,0.2078 -0.27436,0 0.15858,-0.2473 c -0.14542,-0.0325 -0.26631,-0.0781 -0.36184,-0.1369 -0.0966,-0.0588 -0.20326,-0.1441 -0.32018,-0.257 -0.17288,0.1321 -0.33229,0.2462 -0.4798,0.3434 -0.14626,0.0973 -0.30296,0.1813 -0.46749,0.2497 -0.16463,0.0697 -0.32822,0.1045 -0.49087,0.1045 -0.16474,0 -0.29377,-0.036 -0.38637,-0.1092 -0.0924,-0.0733 -0.13812,-0.1729 -0.13812,-0.299 0,-0.0876 0.0223,-0.1633 0.0681,-0.2293 0.0458,-0.0661 0.10168,-0.0985 0.16766,-0.0985 0.0417,0 0.0732,0.0132 0.0946,0.0384 0.0223,0.0265 0.0335,0.0516 0.0335,0.0781 0,0.0732 -0.0386,0.1093 -0.11379,0.1093 -0.061,0 -0.0976,-0.0385 -0.10983,-0.1165 -0.062,0.0612 -0.0925,0.1381 -0.0925,0.2329 0,0.108 0.0407,0.1921 0.12204,0.2533 0.0813,0.0613 0.1971,0.0913 0.34858,0.0913 0.1545,0 0.31402,-0.0337 0.47772,-0.1021 0.16369,-0.0684 0.31914,-0.1513 0.46654,-0.2497 0.14626,-0.0984 0.29983,-0.2101 0.45841,-0.335 -0.15545,-0.2016 -0.26642,-0.3841 -0.33344,-0.5486 -0.0682,-0.1633 -0.10169,-0.3482 -0.10169,-0.5523 0,-0.2149 0.0478,-0.4046 0.14344,-0.5667 0.0945,-0.1632 0.23677,-0.2448 0.42479,-0.2448 0.20827,0 0.38418,0.09 0.52543,0.2689 0.1424,0.1789 0.24293,0.4129 0.30306,0.7011 z m 1.5743,-0.9917 0.0772,-0.102 c 0.0833,-0.1057 0.24606,-0.2942 0.4868,-0.5679 0.24199,-0.2738 0.40255,-0.4538 0.48388,-0.5403 -0.15451,0.0349 -0.35474,0.1465 -0.6007,0.3338 -0.24606,0.1885 -0.49505,0.401 -0.74507,0.6387 -0.25003,0.2377 -0.48284,0.4694 -0.69821,0.6951 -0.21547,0.2245 -0.40255,0.4202 -0.56113,0.5871 0.0234,0.2137 0.0265,0.4046 0.007,0.5739 -0.0183,0.1681 -0.0609,0.3518 -0.12903,0.5486 0.0773,-0.1152 0.17382,-0.2473 0.28865,-0.3973 0.11494,-0.1501 0.21036,-0.2726 0.28563,-0.3674 0.0762,-0.0949 0.1971,-0.2486 0.36487,-0.461 0.16766,-0.2126 0.41476,-0.5259 0.73996,-0.9413 z m -1.60384,1.0866 c -0.0814,0.0888 -0.20953,0.2208 -0.38429,0.3937 -0.17475,0.1741 -0.33135,0.3254 -0.47061,0.4538 0.12099,0.1153 0.23082,0.2018 0.33041,0.2618 0.0995,0.06 0.21547,0.1032 0.34858,0.1284 0.0874,-0.2209 0.14323,-0.4273 0.16975,-0.6219 0.0255,-0.1945 0.0274,-0.3998 0.006,-0.6158 z m 2.13135,-0.5895 c 0.0436,0 0.0661,0.0312 0.0661,0.0948 0,0.0372 -0.009,0.0672 -0.0265,0.0913 -0.0183,0.0227 -0.0406,0.0348 -0.069,0.0348 -0.0539,0 -0.0803,-0.0277 -0.0803,-0.0841 0,-0.0324 0.0112,-0.0636 0.0325,-0.0925 0.0223,-0.03 0.0478,-0.0443 0.0772,-0.0443 z m -1.02955,1.2581 -0.006,-0.0564 c 0.15044,-0.162 0.32729,-0.3157 0.52961,-0.461 l 0.26829,0 -0.70227,0.9292 c -0.0499,0.0661 -0.0813,0.1273 -0.0956,0.1837 -0.0143,0.0565 -0.002,0.0841 0.0356,0.0841 0.0996,0 0.247,-0.0865 0.44421,-0.2605 0.19605,-0.1741 0.37802,-0.3566 0.54474,-0.5487 l 0,0.0601 c -0.19303,0.2172 -0.37813,0.4057 -0.55706,0.563 -0.17883,0.1572 -0.32509,0.2353 -0.43805,0.2353 -0.0649,0 -0.0986,-0.0408 -0.0986,-0.1236 0,-0.2437 0.16161,-0.556 0.48284,-0.9353 0.0183,-0.0217 0.0345,-0.042 0.0487,-0.0625 0.0152,-0.0192 0.0295,-0.0371 0.0436,-0.054 -0.17883,0.1273 -0.34556,0.2761 -0.49996,0.4466 z m 0.94311,-0.0492 c 0.0895,-0.084 0.17894,-0.1692 0.26736,-0.2569 0.0884,-0.0865 0.17581,-0.1681 0.26329,-0.2462 -0.0164,-0.0719 -0.008,-0.1379 0.0233,-0.1944 0.0326,-0.0577 0.0712,-0.0864 0.11692,-0.0864 0.0255,0 0.0477,0.008 0.0682,0.0264 0.0203,0.018 0.0294,0.0396 0.0294,0.0648 0,0.03 -0.008,0.0552 -0.0254,0.0744 -0.0164,0.0181 -0.0367,0.0276 -0.0611,0.0276 -0.0234,0 -0.0558,-0.024 -0.0975,-0.0708 -0.0122,0.0192 -0.0184,0.0456 -0.0184,0.0781 -0.002,0.0276 0.007,0.054 0.0285,0.0792 0.0204,0.024 0.0436,0.0372 0.0702,0.0372 0.0172,0 0.0447,-0.005 0.0803,-0.0144 0.0397,-0.01 0.063,-0.0144 0.0711,-0.0144 0.0163,0 0.0296,0.018 0.0407,0.0528 0.0112,0.0348 0.0163,0.078 0.0163,0.1273 0,0.042 -0.0244,0.0972 -0.0732,0.1668 -0.0489,0.0685 -0.13216,0.1825 -0.25118,0.3399 -0.11984,0.156 -0.20221,0.2676 -0.24794,0.3337 -0.0457,0.066 -0.0681,0.1165 -0.0681,0.1513 0,0.0347 0.0202,0.0528 0.0599,0.0528 0.0549,0 0.17382,-0.0768 0.35578,-0.2305 0.18103,-0.1537 0.39232,-0.3494 0.63212,-0.5859 l 0,0.06 c -0.53346,0.5367 -0.87098,0.8056 -1.01222,0.8056 -0.0539,0 -0.0803,-0.0384 -0.0803,-0.1165 0,-0.1104 0.0183,-0.2137 0.0548,-0.3133 0.0366,-0.0985 0.0996,-0.2065 0.18906,-0.3266 l 0.34869,-0.4537 c -0.0417,0.0179 -0.0885,0.0263 -0.14135,0.0239 -0.0528,-0.002 -0.0854,-0.0192 -0.0965,-0.0528 -0.26433,0.2581 -0.44514,0.431 -0.54286,0.5175 l 0,-0.0565 z m 2.49027,-0.0876 0,0.06 c -0.47062,0.5367 -0.86294,0.8056 -1.17696,0.8056 -0.0834,0 -0.14334,-0.0252 -0.18092,-0.0757 -0.0377,-0.0503 -0.057,-0.1404 -0.057,-0.2689 0,-0.1128 0.0305,-0.2269 0.0904,-0.3421 0.0611,-0.1141 0.14135,-0.2161 0.2399,-0.3037 0.0996,-0.0877 0.20848,-0.1573 0.32728,-0.2078 0.11995,-0.0504 0.23583,-0.0756 0.34869,-0.0756 0.0518,0 0.0934,0.0156 0.12705,0.0456 0.0325,0.03 0.0487,0.0733 0.0487,0.1273 0,0.06 -0.0204,0.1152 -0.061,0.1632 -0.0407,0.0481 -0.0864,0.0721 -0.13519,0.0721 -0.0599,0 -0.0895,-0.0312 -0.0895,-0.0913 0,-0.0924 0.0347,-0.138 0.10367,-0.138 0.0396,0 0.0641,0.0216 0.0721,0.0636 0.007,0.0144 0.0153,0.0217 0.0235,0.0217 0.0104,0 0.0203,-0.01 0.0293,-0.0289 0.0104,-0.018 0.0153,-0.0396 0.0153,-0.0624 0,-0.0384 -0.0112,-0.0684 -0.0326,-0.09 -0.0223,-0.0229 -0.0518,-0.0337 -0.0894,-0.0337 -0.10575,0 -0.2328,0.0672 -0.38324,0.2005 -0.14939,0.1332 -0.27842,0.2858 -0.38825,0.4574 -0.10878,0.1717 -0.16369,0.305 -0.16369,0.401 0,0.0781 0.0489,0.1165 0.14647,0.1165 0.17987,0 0.35567,-0.066 0.52647,-0.1969 0.17079,-0.132 0.39033,-0.3386 0.65863,-0.6195 z m -0.0733,0.0876 c 0.0895,-0.084 0.17893,-0.1692 0.26746,-0.2569 0.0884,-0.0865 0.1758,-0.1681 0.26318,-0.2462 -0.0163,-0.0719 -0.008,-0.1379 0.0233,-0.1944 0.0327,-0.0577 0.0712,-0.0864 0.11693,-0.0864 0.0255,0 0.0478,0.008 0.0682,0.0264 0.0204,0.018 0.0294,0.0396 0.0294,0.0648 0,0.03 -0.008,0.0552 -0.0254,0.0744 -0.0163,0.0181 -0.0365,0.0276 -0.0611,0.0276 -0.0233,0 -0.0558,-0.024 -0.0975,-0.0708 -0.0122,0.0192 -0.0184,0.0456 -0.0184,0.0781 -0.002,0.0276 0.007,0.054 0.0285,0.0792 0.0204,0.024 0.0437,0.0372 0.0703,0.0372 0.0171,0 0.0447,-0.005 0.0803,-0.0144 0.0396,-0.01 0.0629,-0.0144 0.0711,-0.0144 0.0163,0 0.0294,0.018 0.0406,0.0528 0.0112,0.0348 0.0163,0.078 0.0163,0.1273 0,0.042 -0.0244,0.0972 -0.0732,0.1668 -0.0488,0.0685 -0.13217,0.1825 -0.25108,0.3399 -0.11995,0.156 -0.20232,0.2676 -0.24804,0.3337 -0.0457,0.066 -0.0681,0.1165 -0.0681,0.1513 0,0.0347 0.0204,0.0528 0.06,0.0528 0.0548,0 0.17371,-0.0768 0.35568,-0.2305 0.18102,-0.1537 0.39232,-0.3494 0.63222,-0.5859 l 0,0.06 c -0.53357,0.5367 -0.87098,0.8056 -1.01233,0.8056 -0.0539,0 -0.0803,-0.0384 -0.0803,-0.1165 0,-0.1104 0.0183,-0.2137 0.0549,-0.3133 0.0365,-0.0985 0.0995,-0.2065 0.18896,-0.3266 l 0.34868,-0.4537 c -0.0417,0.0179 -0.0884,0.0263 -0.14125,0.0239 -0.0528,-0.002 -0.0855,-0.0192 -0.0966,-0.0528 -0.26433,0.2581 -0.44515,0.431 -0.54286,0.5175 l 0,-0.0565 z m 2.08166,-0.4466 c -0.1188,0 -0.25097,0.0697 -0.39744,0.2077 -0.14532,0.1381 -0.27237,0.2954 -0.3801,0.4718 -0.10879,0.1753 -0.16255,0.3002 -0.16255,0.3722 0,0.0361 0.0104,0.0648 0.0294,0.0889 0.0204,0.0228 0.0447,0.0348 0.0741,0.0348 0.0813,0 0.19929,-0.0673 0.35171,-0.2005 0.15253,-0.1333 0.29075,-0.2857 0.41373,-0.4538 0.12297,-0.1693 0.18394,-0.3014 0.18394,-0.3974 0,-0.0829 -0.0377,-0.1237 -0.11285,-0.1237 z m 0.78569,0.4334 -0.15148,0.1513 c -0.23782,0.2341 -0.41466,0.3998 -0.52846,0.4958 -0.11389,0.096 -0.21453,0.1441 -0.30191,0.1441 -0.0578,0 -0.0864,-0.0384 -0.0864,-0.1165 0,-0.0816 0.0265,-0.1968 0.0804,-0.3445 -0.28364,0.3073 -0.49296,0.461 -0.62815,0.461 -0.059,0 -0.10774,-0.0276 -0.14532,-0.0828 -0.0377,-0.0553 -0.0569,-0.1357 -0.0569,-0.2413 0,-0.1189 0.0293,-0.2366 0.0894,-0.353 0.059,-0.1165 0.13926,-0.2185 0.2399,-0.3086 0.0996,-0.0888 0.2114,-0.1596 0.33543,-0.2113 0.12392,-0.0516 0.24502,-0.0768 0.36173,-0.0768 0.058,0 0.0997,0.012 0.12705,0.0372 0.0265,0.024 0.0407,0.0649 0.0427,0.1213 -0.002,0.012 -0.003,0.0228 -0.004,0.0336 -9.4e-4,0.01 -0.003,0.0252 -0.006,0.0432 -0.003,0.0192 -0.006,0.0348 -0.007,0.0456 l 0.18698,-0.2593 0.25013,-0.0216 -0.0774,0.1129 c -0.0628,0.0888 -0.11473,0.1621 -0.1544,0.2197 -0.0396,0.0576 -0.0741,0.1044 -0.10168,0.1429 -0.31006,0.3961 -0.46446,0.6278 -0.46446,0.6963 0,0.0347 0.0142,0.0528 0.0417,0.0528 0.0376,0 0.0945,-0.0265 0.16975,-0.0792 0.0752,-0.0529 0.16056,-0.1225 0.2541,-0.2089 0.0946,-0.0877 0.20222,-0.1897 0.32321,-0.3086 0.12204,-0.1189 0.19209,-0.1873 0.2114,-0.2053 l 0,0.06 z m -0.0732,0.0421 0,-0.0637 c 0.004,-0.005 0.0356,-0.03 0.0935,-0.0757 0.059,-0.0455 0.0905,-0.0708 0.0945,-0.0756 0.002,-0.0732 0.0194,-0.1404 0.0519,-0.2017 0.0325,-0.0624 0.0661,-0.0936 0.0996,-0.0936 0.0539,0 0.0732,0.0456 0.0569,0.1369 0.26422,-0.1573 0.40965,-0.2438 0.43804,-0.2605 l 0.71355,-0.9809 c 0.52042,-0.7204 0.90261,-1.0806 1.14648,-1.0806 0.0457,0 0.0844,0.0168 0.11588,0.0492 0.0315,0.0325 0.0477,0.0769 0.0477,0.1297 0,0.1441 -0.0792,0.3182 -0.23666,0.5247 -0.15764,0.2065 -0.37708,0.4262 -0.6577,0.6579 -0.28051,0.2317 -0.58953,0.4466 -0.92694,0.6435 l -0.64036,0.9077 c 0.0772,0.0468 0.14845,0.0708 0.21453,0.0708 0.14219,0 0.25713,-0.0312 0.34253,-0.0937 0.0853,-0.0612 0.19417,-0.1657 0.32728,-0.3109 l 0,0.06 c -0.12705,0.1501 -0.23688,0.2521 -0.32728,0.3062 -0.0916,0.054 -0.20337,0.0804 -0.33658,0.0804 -0.0874,0 -0.17069,-0.0228 -0.24992,-0.0696 l -1.43618,2.029 -0.23782,0 0.5509,-0.7492 c 0.0956,-0.1309 0.20723,-0.2989 0.33647,-0.5031 0.12904,-0.2041 0.24084,-0.3889 0.33532,-0.5534 0.0934,-0.1657 0.1829,-0.3338 0.26632,-0.5054 l -0.006,-0.1165 c -0.0295,0.0216 -0.059,0.0432 -0.0875,0.066 -0.0294,0.0216 -0.0589,0.0456 -0.0884,0.0721 z m 0.75114,-0.532 c -0.0854,0.0469 -0.20629,0.1213 -0.3608,0.2222 -0.002,0.0204 -0.009,0.0444 -0.0204,0.0696 -0.0122,0.0265 -0.0243,0.0492 -0.0376,0.0708 -0.0133,0.0217 -0.0285,0.0469 -0.0457,0.0781 -0.0326,0.0444 -0.0478,0.0768 -0.0478,0.0984 0.005,0.0324 0.0234,0.0661 0.0529,0.1021 0.0203,-0.0336 0.0966,-0.1405 0.22967,-0.3205 0.13311,-0.1813 0.20942,-0.2882 0.22968,-0.3207 z m 0.64537,-0.671 -0.28855,0.4105 c 0.22456,-0.1332 0.43701,-0.2773 0.63828,-0.431 0.20117,-0.1536 0.38314,-0.3109 0.54683,-0.473 0.16265,-0.162 0.29074,-0.3133 0.38313,-0.455 0.0935,-0.1416 0.14021,-0.2617 0.14021,-0.3577 0,-0.0421 -0.0112,-0.0745 -0.0325,-0.0985 -0.0223,-0.0228 -0.0519,-0.0348 -0.0895,-0.0348 -0.13112,0 -0.30087,0.126 -0.51018,0.3794 -0.20942,0.2533 -0.4726,0.6062 -0.78778,1.0601 z m -1.14032,1.3614 -0.0569,-0.1165 c -0.005,0.0121 -0.0406,0.0757 -0.10576,0.1934 -0.064,0.1176 -0.11796,0.2149 -0.16066,0.2941 -0.0426,0.078 -0.0895,0.1657 -0.14115,0.2618 l 0.46446,-0.6328 z m 1.96975,-1.1753 0.49505,-0.6616 0.25608,0 -0.49494,0.6616 0.37802,0 -0.0325,0.06 -0.38417,0 -0.72368,0.9712 c -0.0792,0.1033 -0.16672,0.227 -0.26318,0.3722 -0.0967,0.1453 -0.14438,0.2258 -0.14438,0.239 0,0.0492 0.0213,0.0744 0.065,0.0744 0.16358,0 0.51227,-0.2726 1.04887,-0.8164 l 0,0.06 -0.15858,0.1657 c -0.41059,0.4262 -0.70938,0.6399 -0.89541,0.6399 -0.0457,0 -0.0813,-0.0156 -0.10774,-0.0456 -0.0254,-0.0301 -0.0386,-0.066 -0.0386,-0.1057 0,-0.0936 0.056,-0.2497 0.1687,-0.4682 0.11181,-0.2173 0.33135,-0.5198 0.65864,-0.9076 -0.20222,0.1597 -0.48378,0.4286 -0.84561,0.8056 l 0,-0.0565 c 0.12193,-0.1356 0.27132,-0.2893 0.45015,-0.4622 0.17894,-0.1717 0.3538,-0.3277 0.52355,-0.4658 l -0.21652,0 0.0417,-0.06 0.21954,0 z"
   class="fil11" /><path
   style="fill:#00ccff;stroke:#000000;stroke-width:0.0633"
   inkscape:connector-curvature="0"
   id="path246"
   d="m 207.701,116.061 c 8.8846,0.8223 17.1919,2.6894 25.3342,5.1062 -0.5059,2.0307 -2.0428,3.2092 -4.0333,3.2469 -6.8254,-0.055 -18.7094,-0.2749 -21.3009,-2.7217 l 0,-5.6314 z"
   class="fil20 str0" /><line
   style="fill:none;stroke:#000000;stroke-width:0.2078"
   id="line248"
   y2="116.785"
   x2="213.746"
   y1="123.61"
   x1="213.746"
   class="fil12 str3" /><line
   style="fill:none;stroke:#000000;stroke-width:0.2078"
   id="line250"
   y2="117.948"
   x2="220.181"
   y1="124.187"
   x1="220.181"
   class="fil12 str3" /><line
   style="fill:none;stroke:#000000;stroke-width:0.2078"
   id="line252"
   y2="119.418"
   x2="226.69299"
   y1="124.389"
   x1="226.69299"
   class="fil12 str3" /><path
   style="fill:none;stroke:#000000;stroke-width:0.2078"
   inkscape:connector-curvature="0"
   id="path254"
   d="m 207.701,118.312 c 8.1849,1.0973 16.4522,2.6343 24.5546,4.5288"
   class="fil12 str3" /><g
   id="g256">
   <polygon
   style="fill:#ffffff"
   id="polygon258"
   points="269.278,130.216 252.418,130.216 252.418,131.141 269.278,131.141 "
   class="fil21" />
   <path
   style="fill:#000000;fill-rule:nonzero"
   inkscape:connector-curvature="0"
   d="m 269.278,131.173 -16.8598,0 0,-0.0634 16.8598,0 0.0315,0.0317 -0.0315,0.0317 z m 0.0315,-0.0317 0,0.0317 -0.0315,0 0.0315,-0.0317 z m 0,-0.9252 0,0.9252 -0.063,0 0,-0.9252 0.0315,-0.0317 0.0315,0.0317 z m -0.0315,-0.0317 0.0315,0 0,0.0317 -0.0315,-0.0317 z m -16.8598,0 16.8598,0 0,0.0634 -16.8598,0 -0.0315,-0.0317 0.0315,-0.0317 z m -0.0315,0.0317 0,-0.0317 0.0315,0 -0.0315,0.0317 z m 0,0.9252 0,-0.9252 0.063,0 0,0.9252 -0.0315,0.0317 -0.0315,-0.0317 z m 0.0315,0.0317 -0.0315,0 0,-0.0317 0.0315,0.0317 z"
   class="fil11"
   id="path260" />
  </g><rect
   style="fill:#cc3300;stroke:#000000;stroke-width:0.0633"
   id="rect262"
   height="0.92526603"
   width="4.59831"
   y="130.216"
   x="252.418"
   class="fil22 str0" /><rect
   style="fill:#cc3300;stroke:#000000;stroke-width:0.0633"
   id="rect264"
   height="0.92526603"
   width="4.59831"
   y="130.216"
   x="260.556"
   class="fil22 str0" /><g
   id="g266"
   transform="matrix(1.0016053,0,0,0.72231419,-0.43796426,36.287565)">
   <polygon
   style="fill:url(#id1)"
   id="polygon268"
   points="269.278,130.351 269.278,131.006 276.371,131.006 276.371,130.351 "
   class="fil23" />
   <polygon
   style="fill:none;fill-rule:nonzero;stroke:#000000;stroke-width:0.0762"
   points="269.278,130.351 269.278,131.006 276.371,131.006 276.371,130.351 "
   class="fil4 str1"
   id="polygon270" />
  </g><line
   style="fill:none;stroke:#000000;stroke-width:0.0633"
   id="line272"
   y2="132.78"
   x2="250.11099"
   y1="128.571"
   x1="250.11099"
   class="fil12 str0" /><line
   style="fill:none;stroke:#000000;stroke-width:0.0633"
   id="line274"
   y2="136.97301"
   x2="241.765"
   y1="124.356"
   x1="241.765"
   class="fil12 str0" /><polyline
   style="fill:none;stroke:#000000;stroke-width:0.0633"
   id="polyline276"
   points="223.495,142.226 223.495,131.02 241.765,131.02 "
   class="fil12 str0" /><line
   style="fill:none;stroke:#000000;stroke-width:0.2078"
   id="line278"
   y2="137.92"
   x2="216.349"
   y1="144.138"
   x1="212.06"
   class="fil12 str3" /><path
   inkscape:connector-curvature="0"
   style="fill:url(#id11);stroke:#000000;stroke-width:0.0633"
   id="path280"
   d="m 48.2358,132.394 c 0.7075,0 1.3804,0.0572 1.9883,0.16 l -0.009,3.4479 c -0.6055,0.1019 -1.2752,0.1585 -1.9793,0.1585 -2.7179,0 -4.9211,-0.8431 -4.9211,-1.8832 0,-1.0401 2.2032,-1.8832 4.9211,-1.8832 z"
   class="fil24 str0" /><g
   id="g282">
   <rect
   style="fill:#000066"
   id="rect284"
   height="6.7111201"
   width="35.629501"
   y="126.885"
   x="60.2397"
   class="fil25" />
   <rect
   style="fill:#ffffff"
   id="rect286"
   height="5.3832798"
   width="33.884602"
   y="127.549"
   x="61.112202"
   class="fil21" />
   <rect
   style="fill:#990000"
   id="rect288"
   height="1.2578"
   width="33.884602"
   y="129.662"
   x="61.112202"
   class="fil26" />
   <circle
   style="fill:#330066"
   id="circle290"
   r="9.2901402"
   cy="130.32201"
   cx="78.0411"
   class="fil27" />
   <polygon
   style="fill:#ffffff"
   id="polygon292"
   points="86.084,127.654 81.0532,131.295 82.9835,137.197 77.9666,133.537 72.9497,137.197 74.8801,131.295 69.8493,127.654 76.059,127.666 77.9667,121.757 79.8743,127.666 "
   class="fil21" />
  </g><path
   style="fill:#ffcc00;stroke:#000000;stroke-width:0.0633"
   inkscape:connector-curvature="0"
   id="path294"
   d="m 24.3457,80.1295 c -0.052,-0.0502 -0.1993,-0.0793 -0.3068,0 -0.0467,0.0926 -0.1278,0.1878 -0.2116,0.2539 -0.1428,0.0662 -0.5342,0.0926 -0.6347,0 -0.0458,-0.1401 -0.1789,-0.2142 -0.3279,-0.2539 0,0.1763 0,0.3527 0,0.529 -0.1816,-0.1966 -0.4029,-0.3456 -0.6559,-0.4867 -0.5694,-0.0282 -1.123,0.0494 -1.6607,0.1376 -1.1707,0.0529 -2.4048,0.0846 -3.5438,-0.1587 -0.2433,0 -0.4866,0 -0.7299,0 -0.234,-0.0079 -0.0806,0.2566 0,0.3174 0.0781,0.0291 0.1562,0.0583 0.2342,0.0875 l 0.101,-0.0356 0.106,0.1862 0.1011,-0.0356 0.101,-0.0356 0.106,0.1862 0.101,-0.0355 0.0973,-0.0257 0.1134,0.1663 0.0973,-0.0256 0.094,-0.0167 0.12,0.1484 0.094,-0.0166 0.0938,-0.0163 0.1204,0.1476 0.0938,-0.0163 0.094,-0.0168 0.12,0.1487 0.094,-0.0168 0.0952,-0.0199 0.1177,0.1548 0.0952,-0.0199 0.0958,-0.0218 0.1163,0.1587 0.0959,-0.0218 0.0933,-0.0151 0.1213,0.1451 0.0934,-0.015 0.0909,-0.0086 0.1262,0.1322 0.0909,-0.0085 0.0909,-0.0085 0.1263,0.1319 0.0909,-0.0084 0.0919,-0.0112 0.1242,0.1374 0.0919,-0.0112 0.0951,-0.0198 0.1178,0.1546 0.0951,-0.0198 0.0971,-0.025 0.1139,0.165 0.0971,-0.025 0.0971,-0.0252 0.1137,0.1654 0.0972,-0.0252 0.099,-0.0303 0.1099,0.1757 0.0991,-0.0303 0.1017,-0.0373 0.1047,0.1895 0.1016,-0.0372 0.1025,-0.0396 0.103,0.1942 0.1025,-0.0396 0.1021,-0.0384 0.1039,0.1919 0.1021,-0.0384 0.1076,-0.0534 0.0926,0.2219 0.1077,-0.0534 0.1095,-0.0583 0.0891,0.2315 0.1095,-0.0582 0.1103,-0.0605 0.0873,0.2362 0.1104,-0.0606 0.1144,-0.0713 0.0791,0.2578 0.1145,-0.0714 0.1184,-0.0821 0.0711,0.2793 0.1185,-0.0821 0.1165,-0.077 0.0749,0.2691 0.1165,-0.077 0.082,0.0306 c 0.0182,0.0068 0.0365,0.0137 0.0547,0.0205 0.0182,-0.0068 0.0364,-0.0137 0.0547,-0.0205 l 0.0819,-0.0306 0.1166,0.077 0.0749,-0.2691 0.1165,0.077 0.1184,0.0821 0.0712,-0.2793 0.1184,0.0821 0.1144,0.0714 0.0791,-0.2578 0.1144,0.0713 0.1104,0.0606 0.0873,-0.2362 0.1104,0.0605 0.1094,0.0582 0.0892,-0.2315 0.1094,0.0583 0.1077,0.0534 0.0926,-0.2219 0.1077,0.0534 0.1021,0.0384 0.1038,-0.1919 0.1021,0.0384 0.1025,0.0396 0.103,-0.1942 0.1025,0.0396 0.1017,0.0372 0.1047,-0.1895 0.1016,0.0373 0.0991,0.0303 0.1099,-0.1757 0.0991,0.0303 0.0971,0.0252 0.1137,-0.1654 0.0972,0.0252 0.097,0.025 0.114,-0.165 0.097,0.025 0.0952,0.0198 0.1177,-0.1546 0.0952,0.0198 0.0919,0.0112 0.1242,-0.1374 0.0919,0.0112 0.0909,0.0084 0.1263,-0.1319 0.0908,0.0085 0.091,0.0085 0.1261,-0.1322 0.0909,0.0086 0.0934,0.015 0.1213,-0.1451 0.0933,0.0151 0.096,0.0218 0.1162,-0.1587 0.0959,0.0218 0.0952,0.0199 0.1176,-0.1548 0.0952,0.0199 0.094,0.0168 0.12,-0.1487 0.094,0.0168 0.0938,0.0163 0.1204,-0.1476 0.0938,0.0163 0.094,0.0166 0.1201,-0.1484 0.0939,0.0167 0.0974,0.0256 0.1133,-0.1663 0.0973,0.0257 0.1011,0.0355 0.106,-0.1862 0.101,0.0356 0.101,0.0356 0.106,-0.1862 0.101,0.0356 c 0.0781,-0.0292 0.1562,-0.0584 0.2342,-0.0875 0.0952,-0.045 0.2248,-0.3253 0,-0.3174 -0.2433,0 -0.4866,0 -0.7299,0 -1.1389,0.2433 -2.373,0.2116 -3.5437,0.1587 -0.5378,-0.0882 -1.0913,-0.1658 -1.6608,-0.1376 -0.253,0.1411 -0.4743,0.2901 -0.6559,0.4867 0,-0.1763 0,-0.3527 0,-0.529 -0.1489,0.0397 -0.2821,0.1138 -0.3279,0.2539 -0.1005,0.0926 -0.4919,0.0662 -0.6347,0 -0.0838,-0.0661 -0.1648,-0.1613 -0.2116,-0.2539 -0.1075,-0.0793 -0.2547,-0.0502 -0.3067,0 z"
   class="fil28 str0" /><path
   style="fill:#000000;fill-rule:nonzero"
   inkscape:connector-curvature="0"
   id="path296"
   d="m 22.1477,81.0948 0.3213,0 0.4188,0.6155 0,-0.6155 0.3241,0 0,1.1125 -0.3241,0 -0.4168,-0.6108 0,0.6108 -0.3233,0 0,-1.1125 z m 1.9617,0.9289 -0.3917,0 -0.0539,0.1836 -0.3512,0 0.418,-1.1125 0.3749,0 0.4183,1.1125 -0.3598,0 -0.0546,-0.1836 z m -0.0721,-0.2407 -0.123,-0.3999 -0.1223,0.3999 0.2453,0 z m 1.3091,-0.0303 0.3013,0.0912 c -0.0203,0.0845 -0.0521,0.1549 -0.0956,0.2116 -0.0435,0.0567 -0.0976,0.0995 -0.1621,0.1282 -0.0646,0.0291 -0.1467,0.0433 -0.2461,0.0433 -0.121,0 -0.2199,-0.0176 -0.2963,-0.0526 -0.0768,-0.0352 -0.143,-0.0971 -0.1988,-0.1857 -0.0553,-0.0886 -0.0833,-0.2018 -0.0833,-0.3399 0,-0.1841 0.0489,-0.3258 0.1468,-0.4245 0.098,-0.0989 0.2365,-0.1484 0.4155,-0.1484 0.1402,0 0.2502,0.0282 0.3305,0.0849 0.0803,0.0567 0.1399,0.1438 0.1787,0.2611 l -0.3035,0.0676 c -0.0106,-0.0339 -0.0218,-0.0588 -0.0334,-0.0745 -0.0192,-0.0262 -0.0428,-0.0464 -0.0705,-0.0607 -0.028,-0.0142 -0.0591,-0.0212 -0.0935,-0.0212 -0.0777,0 -0.1376,0.0313 -0.179,0.094 -0.0314,0.0467 -0.0471,0.1197 -0.0471,0.2194 0,0.1235 0.0189,0.208 0.0562,0.2539 0.0375,0.0458 0.0901,0.0686 0.1578,0.0686 0.0657,0 0.1154,-0.0184 0.1491,-0.0554 0.0337,-0.0368 0.0581,-0.0904 0.0733,-0.1609 z m 1.1527,0.271 -0.3917,0 -0.0539,0.1836 -0.3512,0 0.4181,-1.1125 0.3748,0 0.4183,1.1125 -0.3598,0 -0.0546,-0.1836 z m -0.072,-0.2407 -0.1231,-0.3999 -0.1222,0.3999 0.2453,0 z"
   class="fil11" /><g
   id="g298">
   <path
   style="fill:#c4632f"
   inkscape:connector-curvature="0"
   id="path300"
   d="m 135.894,129.139 c -12.5264,0 -28.6715,1.2555 -28.6715,2.8041 0,1.5488 16.1451,2.8041 28.6715,2.8041 12.5264,0 16.6904,-1.2553 16.6904,-2.8041 0,-1.5486 -4.164,-2.8041 -16.6904,-2.8041 z"
   class="fil0" />
   <path
   style="fill:#000000;fill-rule:nonzero"
   inkscape:connector-curvature="0"
   d="m 107.254,131.943 -0.0632,0 0,0 0.0518,-0.1615 0.1448,-0.1502 0.2298,-0.1434 0.3119,-0.1395 0.391,-0.1364 0.4668,-0.1334 0.5394,-0.1306 0.6084,-0.1276 0.6739,-0.1243 0.7359,-0.121 0.794,-0.1175 0.8489,-0.1138 0.9,-0.11 0.9474,-0.1059 0.9914,-0.1018 1.0317,-0.0974 1.0684,-0.0929 1.1014,-0.0882 1.1309,-0.0832 1.1567,-0.0782 1.1788,-0.0729 1.1976,-0.0675 1.2125,-0.062 1.2238,-0.0561 1.2316,-0.0502 1.2358,-0.0441 1.2362,-0.0379 1.2332,-0.0313 1.2264,-0.0247 1.216,-0.0178 1.2022,-0.0109 1.1845,-0.004 0,0.0634 -1.1841,0.004 -1.2018,0.0109 -1.2158,0.0178 -1.226,0.0247 -1.2328,0.0313 -1.236,0.0377 -1.2354,0.0441 -1.2312,0.0502 -1.2236,0.0561 -1.2121,0.062 -1.1972,0.0675 -1.1786,0.0729 -1.1563,0.0782 -1.1305,0.0832 -1.101,0.0882 -1.068,0.0927 -1.0311,0.0974 -0.9908,0.1018 -0.947,0.1059 -0.8992,0.1098 -0.8481,0.1138 -0.7932,0.1173 -0.7347,0.1208 -0.6725,0.1241 -0.6068,0.1272 -0.5372,0.13 -0.464,0.1326 -0.3868,0.135 -0.3057,0.1367 -0.2202,0.1372 -0.1306,0.1346 -0.0416,0.1271 0,0 z m 28.6399,2.7724 0,0.0634 0,0 -1.1845,-0.004 -1.2022,-0.0109 -1.216,-0.0178 -1.2264,-0.0247 -1.2332,-0.0313 -1.2362,-0.0379 -1.2358,-0.044 -1.2316,-0.0502 -1.2238,-0.0562 -1.2125,-0.0619 -1.1976,-0.0675 -1.1788,-0.073 -1.1567,-0.0781 -1.1309,-0.0833 -1.1014,-0.0881 -1.0684,-0.0929 -1.0317,-0.0974 -0.9914,-0.1018 -0.9474,-0.1059 -0.9,-0.11 -0.8489,-0.1138 -0.794,-0.1175 -0.7359,-0.121 -0.6739,-0.1244 -0.6084,-0.1275 -0.5394,-0.1306 -0.4668,-0.1335 -0.391,-0.1363 -0.3119,-0.1395 -0.2298,-0.1435 -0.1448,-0.1502 -0.0518,-0.1615 0.0632,0 0.0416,0.1271 0.1306,0.1346 0.2202,0.1373 0.3057,0.1367 0.3868,0.1349 0.464,0.1327 0.5372,0.13 0.6068,0.1271 0.6725,0.1242 0.7347,0.1208 0.7932,0.1173 0.8481,0.1138 0.8992,0.1098 0.947,0.1059 0.9908,0.1018 1.0311,0.0974 1.068,0.0927 1.101,0.0881 1.1305,0.0833 1.1563,0.0781 1.1786,0.073 1.1972,0.0675 1.2121,0.0619 1.2236,0.0562 1.2312,0.0502 1.2354,0.044 1.236,0.0377 1.2328,0.0313 1.226,0.0247 1.2158,0.0178 1.2018,0.0109 1.1841,0.004 0,0 z m 16.6588,-2.7724 0.0632,0 0,0 -0.0128,0.1497 -0.0389,0.1477 -0.0656,0.145 -0.0926,0.142 -0.1202,0.1386 -0.1483,0.1354 -0.1772,0.132 -0.2067,0.1286 -0.237,0.1253 -0.2681,0.1216 -0.3,0.1179 -0.3327,0.1143 -0.3662,0.1102 -0.4003,0.1061 -0.4354,0.102 -0.4714,0.0976 -0.508,0.0929 -0.5453,0.0882 -0.5834,0.0834 -0.6225,0.0782 -0.6622,0.073 -0.7027,0.0675 -0.744,0.062 -0.7859,0.0562 -0.829,0.0502 -0.8724,0.044 -0.9167,0.0378 -0.962,0.0314 -1.0079,0.0247 -1.0545,0.0178 -1.1019,0.0109 -1.1502,0.004 0,-0.0634 1.1498,-0.004 1.1015,-0.0109 1.0541,-0.0178 1.0073,-0.0247 0.9614,-0.0312 0.9163,-0.0378 0.8718,-0.044 0.8282,-0.0502 0.7853,-0.0562 0.7432,-0.0618 0.7019,-0.0675 0.6612,-0.073 0.6215,-0.078 0.5824,-0.0832 0.5441,-0.088 0.5066,-0.0927 0.4698,-0.0972 0.4338,-0.1016 0.3985,-0.1057 0.364,-0.1096 0.3303,-0.1133 0.2972,-0.1169 0.2649,-0.1202 0.2334,-0.1233 0.2025,-0.126 0.1726,-0.1286 0.1433,-0.1308 0.115,-0.1326 0.0876,-0.1342 0.0614,-0.1358 0.0361,-0.1371 0.0118,-0.1389 0,0 z m -16.6588,-2.7724 0,-0.0634 0,0 1.1502,0.004 1.1019,0.0109 1.0545,0.0178 1.0079,0.0247 0.962,0.0314 0.9167,0.0378 0.8724,0.0441 0.829,0.0502 0.7859,0.0561 0.744,0.0621 0.7027,0.0675 0.6622,0.0729 0.6225,0.0783 0.5834,0.0833 0.5453,0.0883 0.508,0.0929 0.4714,0.0976 0.4354,0.102 0.4003,0.1061 0.3662,0.1102 0.3327,0.1143 0.3,0.1179 0.2681,0.1216 0.237,0.1252 0.2067,0.1287 0.1772,0.132 0.1483,0.1353 0.1202,0.1387 0.0926,0.142 0.0656,0.1449 0.0389,0.1477 0.0128,0.1497 -0.0632,0 -0.0118,-0.1389 -0.0361,-0.1371 -0.0614,-0.1357 -0.0876,-0.1342 -0.115,-0.1327 -0.1433,-0.1307 -0.1726,-0.1286 -0.2025,-0.1261 -0.2334,-0.1232 -0.2649,-0.1202 -0.2972,-0.1169 -0.3303,-0.1133 -0.364,-0.1096 -0.3985,-0.1057 -0.4338,-0.1016 -0.4698,-0.0972 -0.5066,-0.0927 -0.5441,-0.0881 -0.5824,-0.0831 -0.6215,-0.0781 -0.6612,-0.0729 -0.7019,-0.0675 -0.7432,-0.0619 -0.7853,-0.0561 -0.8282,-0.0502 -0.8718,-0.0441 -0.9163,-0.0378 -0.9614,-0.0312 -1.0073,-0.0247 -1.0541,-0.0178 -1.1015,-0.0109 -1.1498,-0.004 0,0 z"
   class="fil11"
   id="path302" />
  </g><path
   inkscape:connector-curvature="0"
   style="fill:url(#linearGradient4506)"
   id="path304"
   d="m 107.223,131.943 c 0,1.5487 16.1452,2.8042 28.6716,2.8042 12.5263,0 16.6902,-1.2555 16.6902,-2.8042 l -45.3618,0 z"
   class="fil29" /><rect
   style="fill:url(#linearGradient4508);stroke:#000000;stroke-width:0.0083"
   id="rect306"
   height="0.233665"
   width="7.2851701"
   y="131.71899"
   x="167.073"
   class="fil30 str4" /><line
   style="fill:none;stroke:#000000;stroke-width:0.0633"
   id="line308"
   y2="115.663"
   x2="87.9963"
   y1="110.744"
   x1="87.9963"
   class="fil12 str0" /><line
   style="fill:none;stroke:#000000;stroke-width:0.0633"
   id="line310"
   y2="115.02"
   x2="100.492"
   y1="110.743"
   x1="100.492"
   class="fil12 str0" /><line
   style="fill:none;stroke:#000000;stroke-width:0.0633"
   id="line312"
   y2="114.426"
   x2="115.118"
   y1="110.776"
   x1="115.118"
   class="fil12 str0" /><line
   style="fill:none;stroke:#000000;stroke-width:0.0633"
   id="line314"
   y2="146.642"
   x2="100.492"
   y1="115.02"
   x1="100.492"
   class="fil12 str0" /><line
   style="fill:none;stroke:#000000;stroke-width:0.0633"
   id="line316"
   y2="130.093"
   x2="115.118"
   y1="114.426"
   x1="115.118"
   class="fil12 str0" /><line
   style="fill:none;stroke:#000000;stroke-width:0.0633"
   id="line318"
   y2="148.405"
   x2="154.142"
   y1="113.754"
   x1="154.142"
   class="fil12 str0" /><line
   style="fill:none;stroke:#000000;stroke-width:0.0633"
   id="line320"
   y2="114.868"
   x2="193.222"
   y1="111.982"
   x1="193.222"
   class="fil12 str0" /><line
   style="fill:none;stroke:#000000;stroke-width:0.0633"
   id="line322"
   y2="115.39"
   x2="200.589"
   y1="112.769"
   x1="200.589"
   class="fil12 str0" /><polyline
   style="fill:none;stroke:#000000;stroke-width:0.0633"
   id="polyline324"
   points="193.222,114.868 193.222,127.331 154.142,127.331 "
   class="fil12 str0" /><polyline
   style="fill:none;stroke:#000000;stroke-width:0.0633"
   id="polyline326"
   points="154.142,133.049 193.085,133.049 193.085,146.649 "
   class="fil12 str0" /><line
   style="fill:none;stroke:#000000;stroke-width:0.0633"
   id="line328"
   y2="145.88499"
   x2="200.589"
   y1="115.39"
   x1="200.589"
   class="fil12 str0" /><g
   id="g330">
   <path
   style="fill:#c4632f"
   inkscape:connector-curvature="0"
   id="path332"
   d="m 134.899,131.063 c -5.0049,0 -11.4558,0.3939 -11.4558,0.8798 0,0.4858 6.4509,0.8798 11.4558,0.8798 5.0049,0 6.6686,-0.394 6.6686,-0.8798 0,-0.4859 -1.6637,-0.8798 -6.6686,-0.8798 z"
   class="fil0" />
   <path
   style="fill:#000000;fill-rule:nonzero"
   inkscape:connector-curvature="0"
   d="m 123.475,131.943 -0.0636,0 0,0 0.0258,-0.0653 0.063,-0.0517 0.0945,-0.0463 0.1261,-0.0443 0.1571,-0.043 0.1871,-0.042 0.216,-0.0411 0.2435,-0.0401 0.2695,-0.039 0.2942,-0.038 0.3175,-0.0369 0.3393,-0.0357 0.3598,-0.0345 0.3786,-0.0333 0.3962,-0.032 0.4124,-0.0305 0.4269,-0.0291 0.4402,-0.0277 0.4519,-0.0261 0.4623,-0.0245 0.4711,-0.0229 0.4786,-0.0212 0.4845,-0.0194 0.489,-0.0178 0.4921,-0.0157 0.4939,-0.0138 0.494,-0.0119 0.4927,-0.01 0.4902,-0.008 0.4859,-0.006 0.4803,-0.003 0.4734,-10e-4 0,0.0634 -0.473,10e-4 -0.4801,0.003 -0.4857,0.006 -0.4898,0.008 -0.4925,0.01 -0.4938,0.0119 -0.4935,0.0138 -0.4919,0.0157 -0.4888,0.0176 -0.4843,0.0194 -0.4782,0.0212 -0.4709,0.0229 -0.4619,0.0245 -0.4517,0.0261 -0.4398,0.0277 -0.4265,0.0291 -0.412,0.0305 -0.3958,0.032 -0.3782,0.0331 -0.3592,0.0345 -0.3387,0.0357 -0.3167,0.0367 -0.2934,0.038 -0.2683,0.0388 -0.2421,0.0399 -0.2142,0.0407 -0.1847,0.0414 -0.1537,0.0422 -0.1207,0.0423 -0.0853,0.0417 -0.047,0.0377 -0.0116,0.0253 0,0 z m 11.424,0.8481 0,0.0634 0,0 -0.4734,-0.001 -0.4803,-0.003 -0.4859,-0.006 -0.4902,-0.008 -0.4927,-0.01 -0.494,-0.0119 -0.4939,-0.0138 -0.4921,-0.0158 -0.489,-0.0177 -0.4845,-0.0194 -0.4786,-0.0212 -0.4711,-0.0229 -0.4623,-0.0245 -0.4519,-0.0261 -0.4402,-0.0277 -0.4269,-0.0291 -0.4124,-0.0306 -0.3962,-0.0319 -0.3786,-0.0333 -0.3598,-0.0345 -0.3393,-0.0357 -0.3175,-0.037 -0.2942,-0.0379 -0.2695,-0.0391 -0.2435,-0.04 -0.216,-0.0411 -0.1871,-0.0421 -0.1571,-0.0429 -0.1261,-0.0443 -0.0945,-0.0464 -0.063,-0.0516 -0.0258,-0.0653 0.0636,0 0.0116,0.0253 0.047,0.0376 0.0853,0.0418 0.1207,0.0423 0.1537,0.0421 0.1847,0.0415 0.2142,0.0407 0.2421,0.0398 0.2683,0.0389 0.2934,0.0379 0.3167,0.0368 0.3387,0.0357 0.3592,0.0345 0.3782,0.0331 0.3958,0.0319 0.412,0.0306 0.4265,0.0291 0.4398,0.0277 0.4517,0.0261 0.4619,0.0245 0.4709,0.0229 0.4782,0.0212 0.4843,0.0194 0.4888,0.0175 0.4919,0.0158 0.4935,0.0138 0.4938,0.0119 0.4925,0.01 0.4898,0.008 0.4857,0.006 0.4801,0.003 0.473,0.001 0,0 z m 6.6368,-0.8481 0.0636,0 0,0 -0.006,0.0521 -0.0171,0.0508 -0.0282,0.0492 -0.0393,0.0472 -0.0499,0.0452 -0.0609,0.0437 -0.0722,0.0422 -0.0837,0.0409 -0.0955,0.0396 -0.1079,0.0384 -0.1205,0.0373 -0.1335,0.036 -0.1468,0.0347 -0.1604,0.0334 -0.1744,0.032 -0.1886,0.0307 -0.2031,0.0292 -0.2182,0.0277 -0.2334,0.0262 -0.2489,0.0245 -0.2647,0.023 -0.281,0.0212 -0.2974,0.0194 -0.3141,0.0176 -0.3313,0.0158 -0.3487,0.0138 -0.3665,0.012 -0.3844,0.01 -0.4028,0.008 -0.4214,0.006 -0.4403,0.003 -0.4597,0.001 0,-0.0634 0.4593,-0.001 0.4401,-0.003 0.421,-0.006 0.4024,-0.008 0.384,-0.01 0.3659,-0.0118 0.3483,-0.0138 0.3307,-0.0158 0.3137,-0.0176 0.2968,-0.0194 0.2802,-0.0212 0.2641,-0.0228 0.2481,-0.0245 0.2324,-0.026 0.2172,-0.0277 0.2021,-0.029 0.1874,-0.0305 0.173,-0.0318 0.1588,-0.033 0.145,-0.0343 0.1313,-0.0354 0.1181,-0.0365 0.1051,-0.0374 0.0923,-0.0384 0.0799,-0.0389 0.0676,-0.0396 0.0555,-0.0399 0.0441,-0.0398 0.0329,-0.0394 0.0224,-0.039 0.0129,-0.0384 0.004,-0.0385 0,0 z m -6.6368,-0.8481 0,-0.0634 0,0 0.4597,0.001 0.4403,0.003 0.4214,0.006 0.4028,0.008 0.3844,0.01 0.3665,0.012 0.3487,0.0138 0.3313,0.0157 0.3141,0.0177 0.2974,0.0194 0.281,0.0212 0.2647,0.023 0.2489,0.0245 0.2334,0.0262 0.2182,0.0277 0.2031,0.0292 0.1886,0.0306 0.1744,0.0321 0.1604,0.0334 0.1468,0.0347 0.1335,0.036 0.1205,0.0372 0.1079,0.0385 0.0955,0.0395 0.0837,0.041 0.0722,0.0422 0.0609,0.0436 0.0499,0.0453 0.0393,0.0471 0.0282,0.0492 0.0171,0.0509 0.006,0.0521 -0.0636,0 -0.004,-0.0385 -0.0129,-0.0385 -0.0224,-0.0388 -0.0329,-0.0395 -0.0441,-0.0399 -0.0555,-0.0398 -0.0676,-0.0396 -0.0799,-0.039 -0.0923,-0.0383 -0.1051,-0.0375 -0.1181,-0.0364 -0.1313,-0.0354 -0.145,-0.0343 -0.1588,-0.033 -0.173,-0.0319 -0.1874,-0.0304 -0.2021,-0.029 -0.2172,-0.0277 -0.2324,-0.026 -0.2481,-0.0245 -0.2641,-0.0228 -0.2802,-0.0212 -0.2968,-0.0194 -0.3137,-0.0177 -0.3307,-0.0157 -0.3483,-0.0138 -0.3659,-0.0118 -0.384,-0.01 -0.4024,-0.008 -0.421,-0.006 -0.4401,-0.003 -0.4593,-0.001 0,0 z"
   class="fil11"
   id="path334" />
  </g><path
   inkscape:connector-curvature="0"
   style="fill:url(#linearGradient4510)"
   id="path336"
   d="m 123.443,131.943 c 0,0.4859 6.4509,0.8798 11.4558,0.8798 5.0049,0 6.6686,-0.3939 6.6686,-0.8798 l -18.1244,0 z"
   class="fil29" /><g
   id="g338">
   <path
   style="fill:#000000"
   inkscape:connector-curvature="0"
   id="path340"
   d="m 142.333,131.413 c 0.1391,0 0.3335,0.1992 0.3335,0.4156 0,0.2163 -0.1973,0.3906 -0.3364,0.3906 -0.1705,0 -0.007,-0.1365 -0.0292,-0.3942 0.0179,-0.233 -0.1293,-0.4162 0.0321,-0.412 z"
   class="fil31" />
   <path
   style="fill:none;fill-rule:nonzero;stroke:#000000;stroke-width:0.0762"
   inkscape:connector-curvature="0"
   d="m 142.333,131.413 c 0.1391,0 0.3335,0.1992 0.3335,0.4156 0,0.2163 -0.1973,0.3906 -0.3364,0.3906 -0.1705,0 -0.007,-0.1365 -0.0292,-0.3942 0.0179,-0.233 -0.1293,-0.4162 0.0321,-0.412 z"
   class="fil4 str1"
   id="path342" />
  </g><path
   style="fill:#e6e6e6;stroke:#000000;stroke-width:0.0083"
   inkscape:connector-curvature="0"
   id="path344"
   d="m 142.44,132.069 24.6329,0 0,-0.4674 -24.6329,0 c -0.0838,0.1454 -0.0921,0.3079 0,0.4674 z"
   class="fil32 str4" /><polyline
   style="fill:none;stroke:#000000;stroke-width:0.0633"
   id="polyline346"
   points="204.392,123.413 204.439,115.723 204.439,113.588 "
   class="fil12 str0" /><path
   transform="translate(0,1.6933333)"
   style="fill:url(#id13)"
   d="m 15.6224,110.084 0.01357,3.27658 8.348414,-0.22877 25.140036,-0.51361 11.842666,-0.031 -0.01819,-4.39123 z"
   id="polygon348"
   inkscape:connector-curvature="0"
   sodipodi:nodetypes="ccccccc" /><path
   style="fill:none;stroke:#000000;stroke-width:0.0633"
   inkscape:connector-curvature="0"
   id="path350"
   d="m 33.7409,102.292 c -1.2333,-0.1374 -14.9277,4.0871 -14.3229,5.9871 1.6769,2.1475 10.8627,6.3292 14.3229,6.3842 5.7696,0 6.5709,-2.2848 6.5709,-6.3842 0,-4.0995 -0.8013,-5.9871 -6.5709,-5.9871 z"
   class="fil12 str0" /><path
   style="fill:#c4632f;stroke:#000000;stroke-width:0.0633"
   inkscape:connector-curvature="0"
   id="path352"
   d="m 30.6623,107.07 c -6.3922,0 -15.2031,0.64 -15.2031,1.4296 0,0.7895 8.8109,1.4296 15.2031,1.4296 6.3922,0 7.9451,-0.6401 7.9451,-1.4296 0,-0.7896 -1.5529,-1.4296 -7.9451,-1.4296 z"
   class="fil0 str0" /><path
   inkscape:connector-curvature="0"
   style="fill:url(#linearGradient4512)"
   id="path354"
   d="m 15.4592,108.499 c 0,0.7895 8.8109,1.4296 15.2031,1.4296 6.3922,0 7.9451,-0.6401 7.9451,-1.4296 l -23.1482,0 z"
   class="fil34" /><g
   id="g356">
   <path
   style="fill:#c4632f"
   inkscape:connector-curvature="0"
   id="path358"
   d="m 29.8559,108.046 c -2.7044,0 -6.7896,0.2031 -6.7896,0.4536 0,0.2504 4.0852,0.4536 6.7896,0.4536 2.7043,0 3.0037,-0.2032 3.0037,-0.4536 0,-0.2505 -0.2994,-0.4536 -3.0037,-0.4536 z"
   class="fil0" />
   <path
   style="fill:#000000;fill-rule:nonzero"
   inkscape:connector-curvature="0"
   d="m 23.098,108.499 -0.0634,0 0,0 0.0211,-0.0457 0.0429,-0.029 0.0608,-0.0244 0.0799,-0.023 0.0991,-0.0223 0.1174,-0.0217 0.1351,-0.0212 0.152,-0.0207 0.1676,-0.0201 0.1826,-0.0196 0.1964,-0.019 0.2093,-0.0185 0.2213,-0.0178 0.2321,-0.0171 0.2419,-0.0165 0.2509,-0.0157 0.2588,-0.0151 0.2658,-0.0142 0.2716,-0.0135 0.2766,-0.0126 0.2804,-0.0118 0.2834,-0.0109 0.2853,-0.0101 0.2862,-0.009 0.2862,-0.008 0.2851,-0.007 0.2829,-0.006 0.2799,-0.005 0.2758,-0.004 0.2707,-0.003 0.2647,-0.002 0.2575,-6e-4 0,0.0634 -0.2573,6e-4 -0.2643,0.002 -0.2705,0.003 -0.2756,0.004 -0.2797,0.005 -0.2827,0.006 -0.2849,0.007 -0.2858,0.008 -0.286,0.009 -0.2851,0.0101 -0.2832,0.0109 -0.2802,0.0118 -0.2764,0.0126 -0.2714,0.0135 -0.2654,0.0142 -0.2586,0.0151 -0.2505,0.0157 -0.2417,0.0165 -0.2317,0.0171 -0.2207,0.0178 -0.2089,0.0183 -0.1958,0.019 -0.1818,0.0196 -0.1668,0.0199 -0.1508,0.0205 -0.1337,0.021 -0.1154,0.0213 -0.0961,0.0217 -0.0753,0.0216 -0.0526,0.021 -0.0265,0.0172 -0.0025,9e-4 0,0 z m 6.7579,0.4219 0,0.0634 0,0 -0.2575,-6e-4 -0.2647,-0.002 -0.2707,-0.003 -0.2758,-0.004 -0.2799,-0.005 -0.2829,-0.006 -0.2851,-0.007 -0.2862,-0.008 -0.2862,-0.009 -0.2853,-0.0101 -0.2834,-0.0109 -0.2804,-0.0118 -0.2766,-0.0126 -0.2716,-0.0135 -0.2658,-0.0143 -0.2588,-0.015 -0.2509,-0.0158 -0.2419,-0.0164 -0.2321,-0.0172 -0.2212,-0.0177 -0.2094,-0.0185 -0.1964,-0.019 -0.1826,-0.0196 -0.1676,-0.0202 -0.152,-0.0207 -0.1351,-0.0212 -0.1174,-0.0217 -0.099,-0.0222 -0.08,-0.023 -0.0608,-0.0244 -0.0429,-0.029 -0.0211,-0.0457 0.0634,0 0.0025,9e-4 0.0265,0.0172 0.0526,0.021 0.0752,0.0216 0.0962,0.0216 0.1154,0.0213 0.1337,0.021 0.1508,0.0205 0.1668,0.02 0.1818,0.0196 0.1958,0.019 0.2088,0.0183 0.2208,0.0177 0.2317,0.0172 0.2417,0.0164 0.2505,0.0158 0.2586,0.015 0.2654,0.0143 0.2714,0.0135 0.2764,0.0126 0.2802,0.0118 0.2832,0.0109 0.2851,0.0101 0.286,0.009 0.2858,0.008 0.2849,0.007 0.2827,0.006 0.2797,0.005 0.2756,0.004 0.2705,0.003 0.2643,0.002 0.2573,6e-4 0,0 z m 2.972,-0.4219 0.0634,0 0,0 -0.0011,0.026 -0.0035,0.0263 -0.0065,0.0263 -0.01,0.0261 -0.0138,0.0255 -0.0178,0.0247 -0.0221,0.0239 -0.0266,0.0228 -0.0313,0.0218 -0.0363,0.0209 -0.0417,0.0199 -0.0473,0.0191 -0.0536,0.0182 -0.0601,0.0176 -0.0671,0.0167 -0.0744,0.016 -0.0824,0.0151 -0.0904,0.0144 -0.0991,0.0136 -0.1081,0.0127 -0.1175,0.0118 -0.1272,0.011 -0.1375,0.0101 -0.148,0.009 -0.159,0.008 -0.1704,0.007 -0.1822,0.006 -0.1942,0.005 -0.2068,0.004 -0.2197,0.003 -0.233,0.002 -0.2467,6e-4 0,-0.0634 0.2463,-6e-4 0.2328,-0.002 0.2193,-0.003 0.2064,-0.004 0.1938,-0.005 0.1816,-0.006 0.1698,-0.007 0.1584,-0.008 0.1474,-0.009 0.1367,-0.0101 0.1264,-0.0108 0.1165,-0.0118 0.1069,-0.0125 0.0979,-0.0134 0.089,-0.0142 0.0806,-0.0149 0.0726,-0.0156 0.0649,-0.0161 0.0575,-0.0168 0.0506,-0.0172 0.0439,-0.0177 0.0377,-0.0181 0.0319,-0.0183 0.0265,-0.0184 0.0214,-0.0184 0.0169,-0.0183 0.0132,-0.0183 0.01,-0.0183 0.007,-0.0185 0.0047,-0.0191 0.0027,-0.0199 7e-4,-0.0206 0,0 z m -2.972,-0.4219 0,-0.0634 0,0 0.2467,6e-4 0.233,0.002 0.2197,0.003 0.2068,0.004 0.1942,0.005 0.1822,0.006 0.1704,0.007 0.159,0.008 0.148,0.009 0.1375,0.0101 0.1272,0.011 0.1175,0.0118 0.1081,0.0127 0.0991,0.0136 0.0904,0.0143 0.0824,0.0152 0.0744,0.0159 0.0671,0.0168 0.0601,0.0175 0.0536,0.0183 0.0473,0.0191 0.0417,0.0199 0.0363,0.0209 0.0313,0.0217 0.0266,0.0228 0.0221,0.0239 0.0178,0.0247 0.0139,0.0257 0.0099,0.026 0.0065,0.0263 0.0035,0.0263 0.0011,0.026 -0.0634,0 -7e-4,-0.0206 -0.0027,-0.0199 -0.0047,-0.0191 -0.0071,-0.0186 -0.0099,-0.0183 -0.0132,-0.0183 -0.0169,-0.0183 -0.0214,-0.0184 -0.0265,-0.0183 -0.0319,-0.0183 -0.0377,-0.0181 -0.0439,-0.0177 -0.0506,-0.0173 -0.0575,-0.0167 -0.0649,-0.0162 -0.0726,-0.0155 -0.0806,-0.015 -0.089,-0.0141 -0.0979,-0.0134 -0.1069,-0.0125 -0.1165,-0.0118 -0.1264,-0.0108 -0.1367,-0.0101 -0.1474,-0.009 -0.1584,-0.008 -0.1698,-0.007 -0.1816,-0.006 -0.1938,-0.005 -0.2064,-0.004 -0.2193,-0.003 -0.2328,-0.002 -0.2463,-6e-4 0,0 z"
   class="fil11"
   id="path360" />
  </g><path
   inkscape:connector-curvature="0"
   style="fill:url(#linearGradient4514)"
   id="path362"
   d="m 23.0663,108.499 c 0,0.2505 4.0852,0.4536 6.7896,0.4536 2.7043,0 3.0038,-0.2031 3.0038,-0.4536 l -9.7934,0 z"
   class="fil34" />
<path
   style="color:#000000;clip-rule:nonzero;display:inline;overflow:visible;visibility:visible;opacity:1;isolation:auto;mix-blend-mode:normal;color-interpolation:sRGB;color-interpolation-filters:linearRGB;solid-color:#000000;solid-opacity:1;fill:#333333;fill-opacity:1;fill-rule:evenodd;stroke:none;stroke-width:0.049;stroke-linecap:butt;stroke-linejoin:miter;stroke-miterlimit:4;stroke-dasharray:none;stroke-dashoffset:0;stroke-opacity:1;color-rendering:auto;image-rendering:auto;shape-rendering:auto;text-rendering:auto;enable-background:accumulate"
   d="m 119.95311,117.40811 2.70547,0 0,0.78373 -2.70547,0 z"
   id="rect15201" /><rect
   style="color:#000000;clip-rule:nonzero;display:inline;overflow:visible;visibility:visible;opacity:1;isolation:auto;mix-blend-mode:normal;color-interpolation:sRGB;color-interpolation-filters:linearRGB;solid-color:#000000;solid-opacity:1;fill:none;fill-opacity:1;fill-rule:evenodd;stroke:#000000;stroke-width:0.04875916;stroke-linecap:butt;stroke-linejoin:miter;stroke-miterlimit:4;stroke-dasharray:none;stroke-dashoffset:0;stroke-opacity:1;color-rendering:auto;image-rendering:auto;shape-rendering:auto;text-rendering:auto;enable-background:accumulate"
   id="rect15204"
   width="3.4877005"
   height="3.7352319"
   x="154.142"
   y="118.4556" /></svg>